<svg width="12" height="12" viewBox="0 0 12 12" fill="none" xmlns="http://www.w3.org/2000/svg">
<path d="M6 2.5C5.31667 2.5 4.75 1.93333 4.75 1.25C4.75 0.566666 5.31667 0 6 0C6.68333 0 7.25 0.566666 7.25 1.25C7.25 1.93333 6.68333 2.5 6 2.5ZM6 5.51667L11.5 0.0166665L11.9833 0.499999L6.48333 6L11.9833 11.5L11.5 11.9833L6 6.48333L0.483334 12L0 11.5167L5.51667 6L0.0166667 0.499999L0.5 0.0166665L6 5.51667ZM2.5 6C2.5 6.68333 1.93333 7.25 1.25 7.25C0.566667 7.25 0 6.68333 0 6C0 5.31667 0.566667 4.75 1.25 4.75C1.93333 4.75 2.5 5.31667 2.5 6ZM9.5 6C9.5 5.31667 10.0667 4.75 10.75 4.75C11.4333 4.75 12 5.31667 12 6C12 6.68333 11.4333 7.25 10.75 7.25C10.0667 7.25 9.5 6.68333 9.5 6ZM6 9.5C6.68333 9.5 7.25 10.0667 7.25 10.75C7.25 11.4333 6.68333 12 6 12C5.31667 12 4.75 11.4333 4.75 10.75C4.75 10.0667 5.31667 9.5 6 9.5Z" fill="#2E3033"/>
</svg>
