<svg width="90" height="90" viewBox="0 0 90 90" fill="none" xmlns="http://www.w3.org/2000/svg">
<path d="M44.9969 21.8318L46.9356 25.7592L51.2633 26.3846L48.1301 29.4428L48.8743 33.7517L44.9969 31.7192L41.1257 33.7517L41.8637 29.4428L38.7305 26.3846L43.0582 25.7592L44.9969 21.8318Z" fill="#F37A20"/>
<path d="M31.3259 26.7161L32.5704 29.2364L35.3534 29.6429L33.3396 31.6066L33.8149 34.3771L31.3259 33.07L28.8368 34.3771L29.3121 31.6066L27.2983 29.6429L30.0813 29.2364L31.3259 26.7161Z" fill="#F37A20"/>
<path d="M58.6741 26.7161L59.9187 29.2364L62.7016 29.6429L60.6879 31.6066L61.1632 34.3771L58.6741 33.07L56.1851 34.3771L56.6604 31.6066L54.6466 29.6429L57.4296 29.2364L58.6741 26.7161Z" fill="#F37A20"/>
<path d="M36.0892 63.5419V66.3118C36.0892 67.0131 35.5234 67.5788 34.8221 67.5788H32.2054C31.5041 67.5788 30.9384 67.0131 30.9384 66.3118V63.5419" fill="white"/>
<path d="M34.8221 68.1682H32.2054C31.18 68.1682 30.349 67.3372 30.349 66.3117V63.5419C30.349 63.2177 30.6142 62.9525 30.9383 62.9525C31.2625 62.9525 31.5277 63.2177 31.5277 63.5419V66.3117C31.5277 66.683 31.8341 66.9895 32.2054 66.9895H34.8221C35.1934 66.9895 35.4998 66.683 35.4998 66.3117V63.5419C35.4998 63.2177 35.765 62.9525 36.0892 62.9525C36.4133 62.9525 36.6785 63.2177 36.6785 63.5419V66.3117C36.6785 67.3372 35.8475 68.1682 34.8221 68.1682Z" fill="#2E3032"/>
<path d="M59.0616 63.5419V66.3118C59.0616 67.0131 58.4958 67.5788 57.7945 67.5788H55.1778C54.4765 67.5788 53.9108 67.0131 53.9108 66.3118V63.5419" fill="white"/>
<path d="M57.7946 68.1682H55.1779C54.1525 68.1682 53.3215 67.3372 53.3215 66.3117V63.5419C53.3215 63.2177 53.5867 62.9525 53.9109 62.9525C54.235 62.9525 54.5002 63.2177 54.5002 63.5419V66.3117C54.5002 66.683 54.8067 66.9895 55.1779 66.9895H57.7946C58.1659 66.9895 58.4723 66.683 58.4723 66.3117V63.5419C58.4723 63.2177 58.7376 62.9525 59.0617 62.9525C59.3858 62.9525 59.651 63.2177 59.651 63.5419V66.3117C59.651 67.3372 58.8201 68.1682 57.7946 68.1682Z" fill="#2E3032"/>
<path d="M28.475 51.0656H24.049C23.7956 51.0656 23.5894 50.8652 23.5894 50.6118C23.5894 48.885 24.9861 47.4883 26.7128 47.4883H30.3726" fill="white"/>
<path d="M24.0431 51.6549C23.4656 51.6549 23 51.1893 23 50.6118C23 48.5609 24.6678 46.8931 26.7128 46.8931H30.3726C30.6968 46.8931 30.962 47.1583 30.962 47.4824C30.962 47.8065 30.6968 48.0717 30.3726 48.0717H26.7128C25.3574 48.0717 24.2494 49.1384 24.1846 50.4762H28.475C28.7991 50.4762 29.0643 50.7414 29.0643 51.0656C29.0643 51.3897 28.7991 51.6549 28.475 51.6549H24.0431Z" fill="#2E3032"/>
<path d="M61.5251 51.0655H65.951C66.2044 51.0655 66.4107 50.8593 66.4107 50.6059C66.4107 48.8791 65.014 47.4824 63.2872 47.4824H59.6333" fill="white"/>
<path d="M65.951 51.6549H61.5251C61.2009 51.6549 60.9357 51.3897 60.9357 51.0656C60.9357 50.7414 61.2009 50.4762 61.5251 50.4762H65.8154C65.7447 49.1384 64.6368 48.0717 63.2872 48.0717H59.6333C59.3091 48.0717 59.0439 47.8065 59.0439 47.4824C59.0439 47.1583 59.3091 46.8931 59.6333 46.8931H63.2872C65.3322 46.8931 67 48.5609 67 50.6059C67 51.1834 66.5285 51.6549 65.951 51.6549Z" fill="#2E3032"/>
<path d="M29.9835 49.9694L31.4804 42.2019C31.8635 40.3396 34.0028 38.9664 36.5193 38.9664H53.4804C55.9969 38.9664 58.1362 40.3396 58.5193 42.2019L60.0162 49.9694" fill="white"/>
<path d="M60.0104 50.5588C59.7334 50.5588 59.4859 50.3643 59.4329 50.0814L57.9359 42.3139C57.6118 40.7463 55.6965 39.5558 53.4747 39.5558H36.5135C34.2917 39.5558 32.3763 40.7463 32.0522 42.3198L30.5612 50.0814C30.5022 50.3996 30.1899 50.6118 29.8717 50.547C29.5534 50.488 29.3413 50.1757 29.4061 49.8574L30.903 42.09C31.345 39.933 33.7082 38.3771 36.5194 38.3771H53.4805C56.2917 38.3771 58.6549 39.933 59.0969 42.0841L60.5939 49.8574C60.6528 50.1757 60.4465 50.488 60.1283 50.547C60.0929 50.5529 60.0517 50.5588 60.0163 50.5588H60.0104Z" fill="#2E3032"/>
<path d="M61.3188 63.589H28.6871C27.367 63.589 26.2944 62.5223 26.2944 61.2022V57.5011C26.2944 52.9632 29.9719 49.2857 34.5098 49.2798H55.4903C60.0282 49.2798 63.7115 52.9573 63.7115 57.5011V61.2081C63.7115 62.5282 62.6389 63.6008 61.3188 63.6008V63.589Z" fill="white"/>
<path d="M28.6811 64.1783C27.0369 64.1783 25.705 62.8405 25.705 61.2022V57.4952C25.705 52.6391 29.6535 48.6905 34.5097 48.6846H55.4901C60.3463 48.6846 64.3007 52.6332 64.3007 57.4952V61.2022C64.3007 62.8464 62.9629 64.1842 61.3187 64.1842H28.6811V64.1783ZM34.5038 49.8633C30.3018 49.8633 26.8777 53.2874 26.8777 57.4952V61.1963C26.8777 62.1923 27.6851 62.9997 28.6811 62.9997H61.3128C62.3029 62.9997 63.1161 62.1923 63.1161 61.1963V57.4893C63.1161 53.2815 59.6921 49.8574 55.4842 49.8574H34.5097L34.5038 49.8633Z" fill="#2E3032"/>
<path d="M32.9716 57.5188C34.1889 57.5188 35.1757 56.532 35.1757 55.3147C35.1757 54.0974 34.1889 53.1106 32.9716 53.1106C31.7543 53.1106 30.7675 54.0974 30.7675 55.3147C30.7675 56.532 31.7543 57.5188 32.9716 57.5188Z" fill="white"/>
<path d="M32.9717 58.1022C31.4335 58.1022 30.1782 56.847 30.1782 55.3088C30.1782 53.7706 31.4335 52.5153 32.9717 52.5153C34.5099 52.5153 35.7651 53.7706 35.7651 55.3088C35.7651 56.847 34.5099 58.1022 32.9717 58.1022ZM32.9717 53.694C32.0818 53.694 31.3569 54.4189 31.3569 55.3088C31.3569 56.1987 32.0818 56.9236 32.9717 56.9236C33.8616 56.9236 34.5865 56.1987 34.5865 55.3088C34.5865 54.4189 33.8616 53.694 32.9717 53.694Z" fill="#2E3032"/>
<path d="M57.0225 57.5188C58.2398 57.5188 59.2266 56.532 59.2266 55.3147C59.2266 54.0974 58.2398 53.1106 57.0225 53.1106C55.8052 53.1106 54.8184 54.0974 54.8184 55.3147C54.8184 56.532 55.8052 57.5188 57.0225 57.5188Z" fill="white"/>
<path d="M57.0226 58.1022C55.4844 58.1022 54.2291 56.847 54.2291 55.3088C54.2291 53.7706 55.4844 52.5153 57.0226 52.5153C58.5608 52.5153 59.8161 53.7706 59.8161 55.3088C59.8161 56.847 58.5608 58.1022 57.0226 58.1022ZM57.0226 53.694C56.1327 53.694 55.4078 54.4189 55.4078 55.3088C55.4078 56.1987 56.1327 56.9236 57.0226 56.9236C57.9125 56.9236 58.6374 56.1987 58.6374 55.3088C58.6374 54.4189 57.9125 53.694 57.0226 53.694Z" fill="#2E3032"/>
<path d="M51.2352 55.9748H38.7589C38.4348 55.9748 38.1696 55.7096 38.1696 55.3854C38.1696 55.0613 38.4348 54.7961 38.7589 54.7961H51.2352C51.5593 54.7961 51.8245 55.0613 51.8245 55.3854C51.8245 55.7096 51.5593 55.9748 51.2352 55.9748Z" fill="#2E3032"/>
<path d="M51.2352 59.057H38.7589C38.4348 59.057 38.1696 58.7918 38.1696 58.4676C38.1696 58.1435 38.4348 57.8783 38.7589 57.8783H51.2352C51.5593 57.8783 51.8245 58.1435 51.8245 58.4676C51.8245 58.7918 51.5593 59.057 51.2352 59.057Z" fill="#2E3032"/>
</svg>
