<svg width="90" height="90" viewBox="0 0 90 90" fill="none" xmlns="http://www.w3.org/2000/svg">
<path d="M58.8583 28.8188H28.9091V30.9239H58.8583V28.8188Z" fill="#F47A20"/>
<path d="M66 29.8683L58.6744 25.8907V33.8459L66 29.8683Z" fill="#F47A20"/>
<path d="M24 29.8683L31.3319 25.8907V33.8459L24 29.8683Z" fill="#F47A20"/>
<path d="M25.3511 50.6596C29.7469 47.7563 25.7327 45.4255 25.7327 45.4255L24.322 44.7576L22.0661 48.983C21.7935 49.4942 21.6572 50.0735 21.6845 50.6528L21.6981 50.9458C22.993 50.7073 23.988 51.566 25.3511 50.6596Z" fill="white"/>
<path d="M23.9612 51.7648C23.6068 51.7648 23.2864 51.7171 22.9865 51.6694C22.5639 51.6012 22.2026 51.5467 21.8141 51.6149C21.6232 51.649 21.4187 51.6012 21.2688 51.4785C21.112 51.3559 21.0234 51.1718 21.0166 50.9741L21.0029 50.681C20.9757 49.979 21.1393 49.2769 21.4664 48.6566L23.7226 44.4305C23.8931 44.1101 24.2884 43.9806 24.6156 44.1374L26.0266 44.8054C26.1561 44.8803 28.0374 45.9914 28.0919 47.7909C28.126 49.011 27.3353 50.1698 25.7266 51.2263C25.0859 51.649 24.4929 51.7648 23.9612 51.7648ZM22.373 50.2243C22.6661 50.238 22.9388 50.2789 23.191 50.3198C23.859 50.422 24.3429 50.497 24.97 50.088C25.7812 49.5495 26.7423 48.7247 26.7218 47.8318C26.7014 46.9661 25.7471 46.2232 25.3858 46.005L24.6156 45.637L22.6661 49.2905C22.5093 49.5768 22.4139 49.8972 22.3798 50.2175L22.373 50.2243Z" fill="#2E3033"/>
<path d="M52.2896 46.8229C52.2896 46.8229 54.4436 46.6457 56.1613 45.9027C55.7796 45.7732 55.4252 45.5823 55.1116 45.3233L47.8386 39.284C47.2456 38.7932 46.5094 38.5274 45.7392 38.5274H40.2861H29.6185C28.4052 38.5274 27.2942 39.1954 26.7216 40.2656L25.9718 41.6697C28.1598 43.6806 32.4746 46.7411 38.6297 46.8297C47.825 46.9592 52.2896 46.8297 52.2896 46.8297V46.8229Z" fill="white"/>
<path d="M46.2233 47.566C44.1988 47.566 41.6632 47.5523 38.6163 47.5114C32.1544 47.4228 27.6283 44.1305 25.5085 42.1743C25.2835 41.9629 25.2222 41.6289 25.3721 41.3495L26.1219 39.9453C26.8104 38.6502 28.1532 37.8459 29.6187 37.8459H45.7393C46.6595 37.8459 47.5661 38.1731 48.275 38.7593L55.548 44.7985C55.7798 44.9962 56.0592 45.1462 56.3796 45.2552C56.6454 45.3438 56.8295 45.5892 56.8431 45.8755C56.8567 46.1618 56.6932 46.414 56.4341 46.5299C54.6346 47.307 52.4398 47.4978 52.3512 47.5046C52.3375 47.5046 52.3239 47.5046 52.3171 47.5046C52.2898 47.5046 50.2654 47.5592 46.2369 47.5592L46.2233 47.566ZM40.9611 46.1754C48.1932 46.2436 51.9354 46.155 52.2421 46.1482C52.3852 46.1345 53.4077 46.0323 54.5256 45.7392L47.3957 39.8158C46.9322 39.4273 46.3392 39.216 45.7325 39.216H40.9611V46.1823V46.1754ZM26.824 41.5199C28.9371 43.3603 32.9996 46.0664 38.6367 46.1482C38.9639 46.1482 39.2911 46.155 39.6046 46.1618V39.2092H29.6187C28.6576 39.2092 27.7783 39.734 27.3216 40.5861L26.824 41.5199Z" fill="#2E3033"/>
<path d="M61.9008 46.8569C60.5716 46.4343 58.9766 46.1549 57.0544 46.0799C56.7477 46.0663 56.4478 46.0049 56.1546 45.9027C54.4437 46.6456 52.283 46.8229 52.283 46.8229C52.283 46.8229 47.8115 46.9524 38.623 46.8229C32.4679 46.7343 28.1532 43.6805 25.9651 41.6629L24.3156 44.7439L25.7266 45.4119C25.7266 45.4119 27.1443 46.3594 25.3448 48.6019C24.3156 49.8834 22.9864 50.7014 21.6913 50.9331L21.7799 55.2751C21.8481 57.0405 23.2999 58.4311 25.0586 58.4311H25.3312C25.3312 58.3493 25.3176 58.2607 25.3176 58.1789C25.3176 55.2887 27.6624 52.9439 30.5525 52.9439C33.4426 52.9439 35.7875 55.2887 35.7875 58.1789C35.7875 58.2675 35.7806 58.3493 35.7738 58.4311H52.9373C52.9373 58.3493 52.9237 58.2607 52.9237 58.1789C52.9237 55.2887 55.2685 52.9439 58.1586 52.9439C61.0488 52.9439 63.3936 55.2887 63.3936 58.1789C63.3936 58.2675 63.3868 58.3493 63.38 58.4311H66.6859C67.6265 58.4311 68.3695 57.6404 68.315 56.6997C68.24 55.391 67.8651 51.4989 66.5564 49.8493" fill="white"/>
<path d="M66.686 59.1265H63.3801C63.196 59.1265 63.012 59.0515 62.8893 58.9152C62.7598 58.7788 62.6916 58.5948 62.7052 58.4107V58.3153C62.7121 58.2744 62.7189 58.2335 62.7189 58.1926C62.7189 55.6842 60.674 53.6393 58.1656 53.6393C55.6572 53.6393 53.6123 55.6842 53.6123 58.1926C53.6123 58.2335 53.6123 58.2744 53.6123 58.3153V58.4107C53.6259 58.5948 53.5577 58.7788 53.4282 58.9152C53.2987 59.0515 53.1215 59.1265 52.9375 59.1265H35.7739C35.5899 59.1265 35.4059 59.0515 35.2832 58.9152C35.1536 58.7788 35.0855 58.5948 35.0991 58.4107V58.3153C35.1059 58.2744 35.1128 58.2335 35.1128 58.1926C35.1128 55.6842 33.0679 53.6393 30.5594 53.6393C28.051 53.6393 26.0061 55.6842 26.0061 58.1926C26.0061 58.2335 26.0061 58.2744 26.0061 58.3153V58.4107C26.0198 58.5948 25.9516 58.7788 25.8221 58.9152C25.6926 59.0515 25.5154 59.1265 25.3313 59.1265H25.0587C22.9183 59.1265 21.1802 57.4496 21.0984 55.3161L21.0098 50.9605C21.0098 50.6265 21.2415 50.3334 21.5687 50.2789C22.7343 50.0676 23.9203 49.3041 24.8133 48.1863C25.5085 47.3206 25.6108 46.7616 25.5699 46.4481C25.5426 46.2027 25.4199 46.0596 25.3586 46.005L24.0226 45.3711C23.8522 45.2893 23.7295 45.1462 23.6681 44.9689C23.6068 44.7917 23.6272 44.6009 23.7158 44.4373L25.3654 41.3563C25.4676 41.1723 25.6449 41.0427 25.8494 41.0087C26.0607 40.9746 26.272 41.0359 26.4219 41.1791C28.3987 42.999 32.618 46.0732 38.6232 46.155C47.6889 46.2777 52.2081 46.155 52.2558 46.155C52.2558 46.155 54.2871 45.9778 55.8753 45.2893C56.0321 45.2212 56.2025 45.2143 56.3661 45.2689C56.6183 45.3507 56.85 45.3984 57.075 45.412C58.9426 45.487 60.6331 45.7528 62.0986 46.2163C62.4599 46.3322 62.6575 46.7139 62.5417 47.0684C62.4258 47.4296 62.0441 47.6273 61.6896 47.5114C60.34 47.0888 58.7722 46.8366 57.0272 46.7685C56.7546 46.7548 56.4751 46.7139 56.1888 46.6389C54.4439 47.3342 52.4262 47.5114 52.3376 47.5183C52.2558 47.5183 47.7093 47.6478 38.6095 47.5183C32.7475 47.4365 28.4805 44.7236 26.1561 42.7605L25.2495 44.4509L26.013 44.8122C26.013 44.8122 26.0743 44.8394 26.1016 44.8599C26.1697 44.9076 26.7764 45.3302 26.9127 46.2163C27.0422 47.0752 26.6946 48.0227 25.8766 49.0451C24.9223 50.238 23.6681 51.1036 22.3798 51.4854L22.4548 55.2821C22.5025 56.5363 23.4364 57.5519 24.6497 57.7427C24.8814 54.6958 27.4376 52.2829 30.5458 52.2829C33.6541 52.2829 36.2306 54.7095 36.4488 57.77H52.2558C52.4739 54.7027 55.0369 52.2829 58.1588 52.2829C61.2806 52.2829 63.8436 54.7095 64.0617 57.77H66.686C66.9518 57.77 67.1972 57.6678 67.3744 57.4769C67.5585 57.2861 67.6471 57.027 67.6335 56.7612C67.538 54.989 67.0882 51.6353 66.018 50.2993C65.7862 50.0062 65.834 49.5768 66.1271 49.3382C66.4202 49.1065 66.8496 49.1542 67.0882 49.4473C68.6286 51.3831 68.949 55.8205 68.9967 56.6862C69.0308 57.3201 68.7991 57.9541 68.3628 58.4176C67.9197 58.8811 67.3267 59.1401 66.686 59.1401V59.1265ZM45.3918 52.2352H40.9203C40.5454 52.2352 40.2386 51.9284 40.2386 51.5535C40.2386 51.1786 40.5454 50.8719 40.9203 50.8719H45.3918C45.7667 50.8719 46.0734 51.1786 46.0734 51.5535C46.0734 51.9284 45.7667 52.2352 45.3918 52.2352Z" fill="#2E3033"/>
<path d="M64.3814 50.9188C65.2674 50.9188 66.0443 50.5031 66.5555 49.8625C65.5945 48.6562 64.1224 47.5589 61.9007 46.8569C61.703 47.2386 61.5872 47.668 61.5872 48.1246C61.5872 49.6716 62.8412 50.9257 64.3882 50.9257L64.3814 50.9188Z" fill="white"/>
<path d="M64.3814 51.6004C62.4595 51.6004 60.8988 50.0397 60.8988 48.1178C60.8988 47.5794 61.0283 47.0478 61.2873 46.5366C61.4372 46.2436 61.7848 46.1005 62.0983 46.1959C64.2315 46.8706 65.908 47.961 67.0803 49.4263C67.2779 49.6785 67.2779 50.0261 67.0803 50.2782C66.4124 51.1097 65.4241 51.5936 64.3746 51.5936L64.3814 51.6004ZM62.3096 47.7157C62.2823 47.852 62.2687 47.9883 62.2687 48.1246C62.2687 49.29 63.216 50.2442 64.3882 50.2442C64.838 50.2442 65.2674 50.101 65.6286 49.8284C64.7767 48.9356 63.6658 48.2268 62.3164 47.7225L62.3096 47.7157Z" fill="#2E3033"/>
<path d="M58.1586 52.9575C55.2685 52.9575 52.9237 55.3023 52.9237 58.1925C52.9237 58.2811 52.9305 58.3629 52.9373 58.4447C53.0737 61.2189 55.3571 63.4206 58.1586 63.4206C60.9602 63.4206 63.2436 61.2121 63.38 58.4447C63.38 58.3629 63.3936 58.2743 63.3936 58.1925C63.3936 55.3023 61.0488 52.9575 58.1586 52.9575Z" fill="white"/>
<path d="M58.1588 64.1091C55.0028 64.1091 52.4058 61.6348 52.2558 58.4789V58.4107C52.249 58.3357 52.2422 58.2676 52.2422 58.1926C52.2422 54.9276 54.8937 52.276 58.1588 52.276C61.4238 52.276 64.0753 54.9276 64.0753 58.1926C64.0753 58.2676 64.0753 58.3357 64.0685 58.4107V58.4857C63.9117 61.6416 61.3215 64.1091 58.1588 64.1091ZM58.1588 53.6393C55.6504 53.6393 53.6055 55.6842 53.6055 58.1926C53.6055 58.2335 53.6055 58.2744 53.6055 58.3153V58.4107C53.7281 60.8373 55.7253 62.7459 58.1519 62.7459C60.5786 62.7459 62.5757 60.8441 62.6916 58.4175V58.3221C62.6984 58.2812 62.7053 58.2403 62.7053 58.1994C62.7053 55.691 60.6604 53.6461 58.1519 53.6461L58.1588 53.6393Z" fill="#2E3033"/>
<path d="M30.5526 52.9575C27.6624 52.9575 25.3176 55.3023 25.3176 58.1925C25.3176 58.2811 25.3244 58.3629 25.3313 58.4447C25.4676 61.2189 27.7511 63.4206 30.5526 63.4206C33.3541 63.4206 35.6375 61.2121 35.7739 58.4447C35.7739 58.3629 35.7875 58.2743 35.7875 58.1925C35.7875 55.3023 33.4427 52.9575 30.5526 52.9575Z" fill="white"/>
<path d="M30.5527 64.1091C27.3967 64.1091 24.7997 61.6348 24.6497 58.4789V58.4107C24.6429 58.3357 24.6361 58.2676 24.6361 58.1926C24.6361 54.9276 27.2877 52.276 30.5527 52.276C33.8177 52.276 36.4693 54.9276 36.4693 58.1926C36.4693 58.2676 36.4693 58.3357 36.4624 58.4107V58.4857C36.3057 61.6416 33.7155 64.1091 30.5527 64.1091ZM30.5527 53.6393C28.0443 53.6393 25.9994 55.6842 25.9994 58.1926C25.9994 58.2335 25.9994 58.2744 25.9994 58.3153V58.4107C26.1221 60.8373 28.1193 62.7459 30.5459 62.7459C32.9725 62.7459 34.9697 60.8441 35.0855 58.4175V58.3221C35.0924 58.2812 35.0992 58.2403 35.0992 58.1994C35.0992 55.691 33.0543 53.6461 30.5459 53.6461L30.5527 53.6393Z" fill="#2E3033"/>
</svg>
