<svg width="40" height="40" viewBox="0 0 40 40" fill="none" xmlns="http://www.w3.org/2000/svg">
<rect x="0.5" y="0.5" width="39" height="39" rx="19.5" fill="#FFF2EA"/>
<g clip-path="url(#clip0_1139_25468)">
<path d="M21.1249 27.6086C20.4916 28.1836 19.5166 28.1836 18.8832 27.6002L18.7916 27.5169C14.4166 23.5586 11.5582 20.9669 11.6666 17.7336C11.7166 16.3169 12.4416 14.9586 13.6166 14.1586C15.8166 12.6586 18.5332 13.3586 19.9999 15.0752C21.4665 13.3586 24.1832 12.6502 26.3832 14.1586C27.5582 14.9586 28.2832 16.3169 28.3332 17.7336C28.4499 20.9669 25.5832 23.5586 21.2082 27.5336L21.1249 27.6086Z" fill="#FF3D44"/>
</g>
<rect x="0.5" y="0.5" width="39" height="39" rx="19.5" stroke="#FFDECA"/>
<defs>
<clipPath id="clip0_1139_25468">
<rect width="20" height="20" fill="white" transform="translate(10 10)"/>
</clipPath>
</defs>
</svg>
