<svg width="68" height="64" viewBox="0 0 68 64" fill="none" xmlns="http://www.w3.org/2000/svg">
<g clip-path="url(#clip0_707_5207)">
<path d="M47.463 24.4429V20.1924C47.463 19.1142 48.3379 18.2482 49.4071 18.2482H53.4279C54.506 18.2482 55.372 19.1231 55.372 20.1924V24.4429" fill="white"/>
<path d="M47.463 24.4429V20.1924C47.463 19.1142 48.3379 18.2482 49.4071 18.2482H53.4279C54.506 18.2482 55.372 19.1231 55.372 20.1924V24.4429" stroke="#2E3033" stroke-width="2" stroke-linecap="round" stroke-linejoin="round"/>
<path d="M12.1772 24.4429V20.1924C12.1772 19.1142 13.0521 18.2482 14.1214 18.2482H18.1422C19.2203 18.2482 20.0863 19.1231 20.0863 20.1924V24.4429" fill="white"/>
<path d="M12.1772 24.4429V20.1924C12.1772 19.1142 13.0521 18.2482 14.1214 18.2482H18.1422C19.2203 18.2482 20.0863 19.1231 20.0863 20.1924V24.4429" stroke="#2E3033" stroke-width="2" stroke-linecap="round" stroke-linejoin="round"/>
<path d="M59.1719 43.619H65.9675C66.3563 43.619 66.6744 43.9283 66.6744 44.3171C66.6744 46.9682 64.5271 49.1156 61.876 49.1156H56.2557" fill="white"/>
<path d="M59.1719 43.619H65.9675C66.3563 43.619 66.6744 43.9283 66.6744 44.3171C66.6744 46.9682 64.5271 49.1156 61.876 49.1156H56.2557" stroke="#2E3033" stroke-width="2" stroke-linecap="round" stroke-linejoin="round"/>
<path d="M8.3862 43.619H1.58178C1.19296 43.619 0.883667 43.9371 0.883667 44.3171C0.883667 46.9682 3.03104 49.1156 5.68211 49.1156H11.3024" fill="white"/>
<path d="M8.3862 43.619H1.58178C1.19296 43.619 0.883667 43.9371 0.883667 44.3171C0.883667 46.9682 3.03104 49.1156 5.68211 49.1156H11.3024" stroke="#2E3033" stroke-width="2" stroke-linecap="round" stroke-linejoin="round"/>
<path d="M56.8478 45.3068L54.5502 57.2366C53.9582 60.091 50.6708 62.203 46.8091 62.203H20.7491C16.8873 62.203 13.5912 60.091 13.0079 57.2366L10.7103 45.3068" fill="white"/>
<path d="M56.8478 45.3068L54.5502 57.2366C53.9582 60.091 50.6708 62.203 46.8091 62.203H20.7491C16.8873 62.203 13.5912 60.091 13.0079 57.2366L10.7103 45.3068" stroke="#2E3033" stroke-width="2" stroke-linecap="round" stroke-linejoin="round"/>
<path d="M8.7043 24.3722H58.8449C60.8686 24.3722 62.5211 26.0158 62.5211 28.0395V33.7305C62.5211 40.7028 56.8743 46.3584 49.902 46.3584H17.6649C10.6926 46.3584 5.03699 40.7028 5.03699 33.7305V28.0395C5.03699 26.0158 6.68065 24.3633 8.71314 24.3633L8.7043 24.3722Z" fill="white" stroke="#2E3033" stroke-width="2" stroke-linecap="round" stroke-linejoin="round"/>
<path d="M52.2526 40.4819C54.1218 40.4819 55.6371 38.9666 55.6371 37.0974C55.6371 35.2281 54.1218 33.7128 52.2526 33.7128C50.3834 33.7128 48.868 35.2281 48.868 37.0974C48.868 38.9666 50.3834 40.4819 52.2526 40.4819Z" fill="white" stroke="#2E3033" stroke-width="2" stroke-linecap="round" stroke-linejoin="round"/>
<path d="M15.3055 40.4819C17.1747 40.4819 18.69 38.9666 18.69 37.0974C18.69 35.2281 17.1747 33.7128 15.3055 33.7128C13.4363 33.7128 11.921 35.2281 11.921 37.0974C11.921 38.9666 13.4363 40.4819 15.3055 40.4819Z" fill="white" stroke="#2E3033" stroke-width="2" stroke-linecap="round" stroke-linejoin="round"/>
<path d="M43.3627 36.9825H24.1954" stroke="#2E3033" stroke-width="2" stroke-linecap="round" stroke-linejoin="round"/>
<path d="M43.3627 32.2459H24.1954" stroke="#2E3033" stroke-width="2" stroke-linecap="round" stroke-linejoin="round"/>
<path d="M47.1537 12.8842L46.6677 5.92074C46.6235 5.31099 47.3216 4.93984 47.8077 5.31099L51.3866 8.11229C51.7224 8.36856 52.1996 8.28019 52.4205 7.92672L56.2734 1.66135C56.6181 1.09579 57.4841 1.27253 57.5725 1.93529L58.5357 8.73971C58.5975 9.20807 59.0924 9.48201 59.5254 9.2876L64.9601 6.84861C65.5699 6.57467 66.1796 7.21976 65.8791 7.81184L63.1574 13.1405C62.9718 13.5028 63.1309 13.9535 63.5109 14.1126L66.2326 15.2614C66.8159 15.5088 66.807 16.3483 66.2061 16.5692L60.8244 18.6282" stroke="#F47A20" stroke-width="3" stroke-miterlimit="10" stroke-linecap="round"/>
</g>
<defs>
<clipPath id="clip0_707_5207">
<rect width="68" height="63.0955" fill="white"/>
</clipPath>
</defs>
</svg>
