<svg width="90" height="90" viewBox="0 0 90 90" fill="none" xmlns="http://www.w3.org/2000/svg">
<path d="M24.6036 28H44.3964C45.8327 28 47 29.3371 47 30.9822V35H22V30.9822C22 29.3371 23.1673 28 24.6036 28Z" fill="#F47A20"/>
<path d="M38.091 62.1867V64.957C38.091 65.6584 37.5251 66.2242 36.8237 66.2242H34.2067C33.5053 66.2242 32.9395 65.6584 32.9395 64.957V62.1867" fill="white"/>
<path d="M36.8238 66.8077H34.2068C33.1812 66.8077 32.3501 65.9766 32.3501 64.9511V62.1808C32.3501 61.8566 32.6153 61.5914 32.9395 61.5914C33.2637 61.5914 33.5289 61.8566 33.5289 62.1808V64.9511C33.5289 65.3224 33.8354 65.6289 34.2068 65.6289H36.8238C37.1951 65.6289 37.5016 65.3224 37.5016 64.9511V62.1808C37.5016 61.8566 37.7668 61.5914 38.091 61.5914C38.4152 61.5914 38.6804 61.8566 38.6804 62.1808V64.9511C38.6804 65.9766 37.8494 66.8077 36.8238 66.8077Z" fill="#2E3033"/>
<path d="M61.0604 62.1867V64.957C61.0604 65.6584 60.4946 66.2242 59.7932 66.2242H57.1762C56.4748 66.2242 55.9089 65.6584 55.9089 64.957V62.1867" fill="white"/>
<path d="M59.7933 66.8077H57.1762C56.1507 66.8077 55.3196 65.9766 55.3196 64.9511V62.1808C55.3196 61.8566 55.5848 61.5914 55.909 61.5914C56.2332 61.5914 56.4984 61.8566 56.4984 62.1808V64.9511C56.4984 65.3224 56.8049 65.6289 57.1762 65.6289H59.7933C60.1646 65.6289 60.4711 65.3224 60.4711 64.9511V62.1808C60.4711 61.8566 60.7363 61.5914 61.0605 61.5914C61.3847 61.5914 61.6499 61.8566 61.6499 62.1808V64.9511C61.6499 65.9766 60.8188 66.8077 59.7933 66.8077Z" fill="#2E3033"/>
<path d="M30.4698 49.7029H26.0432C25.7898 49.7029 25.5835 49.5025 25.5835 49.249C25.5835 47.522 26.9804 46.1251 28.7074 46.1251H32.3677" fill="white"/>
<path d="M26.0433 50.2923C25.4656 50.2923 25 49.8266 25 49.249C25 47.1978 26.6681 45.5298 28.7133 45.5298H32.3736C32.6978 45.5298 32.963 45.795 32.963 46.1192C32.963 46.4434 32.6978 46.7086 32.3736 46.7086H28.7133C27.3577 46.7086 26.2496 47.7755 26.1847 49.1134H30.4757C30.7999 49.1134 31.0651 49.3787 31.0651 49.7029C31.0651 50.027 30.7999 50.2923 30.4757 50.2923H26.0492H26.0433Z" fill="#2E3033"/>
<path d="M63.5302 49.7029H67.9567C68.2102 49.7029 68.4165 49.4966 68.4165 49.2432C68.4165 47.5162 67.0196 46.1193 65.2926 46.1193H61.6382" fill="white"/>
<path d="M67.9509 50.2923H63.5244C63.2002 50.2923 62.935 50.027 62.935 49.7029C62.935 49.3787 63.2002 49.1134 63.5244 49.1134H67.8154C67.7446 47.7755 66.6365 46.7086 65.2868 46.7086H61.6324C61.3082 46.7086 61.043 46.4434 61.043 46.1192C61.043 45.795 61.3082 45.5298 61.6324 45.5298H65.2868C67.332 45.5298 69.0001 47.1978 69.0001 49.2431C69.0001 49.8207 68.5286 50.2923 67.9509 50.2923Z" fill="#2E3033"/>
<path d="M31.9845 48.6065L33.4816 40.838C33.8647 38.9755 36.0043 37.6021 38.5211 37.6021H55.4846C58.0014 37.6021 60.141 38.9755 60.5241 40.838L62.0212 48.6065" fill="white"/>
<path d="M62.0154 49.1959C61.7383 49.1959 61.4908 49.0014 61.4377 48.7185L59.9406 40.95C59.6164 39.3822 57.7008 38.1915 55.4787 38.1915H38.5153C36.2932 38.1915 34.3776 39.3822 34.0534 40.9559L32.5622 48.7185C32.5033 49.0368 32.1909 49.249 31.8726 49.1842C31.5543 49.1252 31.3421 48.8128 31.4069 48.4945L32.9041 40.726C33.3461 38.5688 35.7097 37.0127 38.5212 37.0127H55.4846C58.2962 37.0127 60.6597 38.5688 61.1018 40.7201L62.5989 48.4945C62.6578 48.8128 62.4515 49.1252 62.1333 49.1842C62.0979 49.1901 62.0566 49.1959 62.0213 49.1959H62.0154Z" fill="#2E3033"/>
<path d="M63.318 62.2339H30.682C29.3617 62.2339 28.2889 61.1671 28.2889 59.8468V56.1452C28.2889 51.6067 31.9669 47.9287 36.5054 47.9229H57.4887C62.0272 47.9229 65.711 51.6008 65.711 56.1452V59.8527C65.711 61.1729 64.6383 62.2457 63.318 62.2457V62.2339Z" fill="white"/>
<path d="M30.682 62.8233C29.0375 62.8233 27.7054 61.4853 27.7054 59.8467V56.1393C27.7054 51.2825 31.6545 47.3334 36.5113 47.3275H57.4946C62.3514 47.3275 66.3064 51.2766 66.3064 56.1393V59.8467C66.3064 61.4912 64.9684 62.8292 63.3239 62.8292H30.682V62.8233ZM36.5054 48.5063C32.3029 48.5063 28.8784 51.9309 28.8784 56.1393V59.8408C28.8784 60.837 29.6859 61.6445 30.682 61.6445H63.318C64.3083 61.6445 65.1217 60.837 65.1217 59.8408V56.1334C65.1217 51.925 61.6971 48.5005 57.4887 48.5005H36.5054V48.5063Z" fill="#2E3033"/>
<path d="M34.9729 56.157C36.1903 56.157 37.1773 55.17 37.1773 53.9525C37.1773 52.7351 36.1903 51.7481 34.9729 51.7481C33.7554 51.7481 32.7684 52.7351 32.7684 53.9525C32.7684 55.17 33.7554 56.157 34.9729 56.157Z" fill="white"/>
<path d="M34.9729 56.7464C33.4345 56.7464 32.1791 55.4909 32.1791 53.9525C32.1791 52.4142 33.4345 51.1587 34.9729 51.1587C36.5113 51.1587 37.7668 52.4142 37.7668 53.9525C37.7668 55.4909 36.5113 56.7464 34.9729 56.7464ZM34.9729 52.3375C34.0829 52.3375 33.3579 53.0625 33.3579 53.9525C33.3579 54.8426 34.0829 55.5675 34.9729 55.5675C35.8629 55.5675 36.5879 54.8426 36.5879 53.9525C36.5879 53.0625 35.8629 52.3375 34.9729 52.3375Z" fill="#2E3033"/>
<path d="M59.0271 56.157C60.2445 56.157 61.2315 55.17 61.2315 53.9525C61.2315 52.7351 60.2445 51.7481 59.0271 51.7481C57.8096 51.7481 56.8226 52.7351 56.8226 53.9525C56.8226 55.17 57.8096 56.157 59.0271 56.157Z" fill="white"/>
<path d="M59.0271 56.7464C57.4887 56.7464 56.2333 55.4909 56.2333 53.9525C56.2333 52.4142 57.4887 51.1587 59.0271 51.1587C60.5655 51.1587 61.821 52.4142 61.821 53.9525C61.821 55.4909 60.5655 56.7464 59.0271 56.7464ZM59.0271 52.3375C58.1371 52.3375 57.4121 53.0625 57.4121 53.9525C57.4121 54.8426 58.1371 55.5675 59.0271 55.5675C59.9171 55.5675 60.6421 54.8426 60.6421 53.9525C60.6421 53.0625 59.9171 52.3375 59.0271 52.3375Z" fill="#2E3033"/>
<path d="M53.2389 54.6186H40.7609C40.4367 54.6186 40.1715 54.3534 40.1715 54.0292C40.1715 53.705 40.4367 53.4398 40.7609 53.4398H53.2389C53.5631 53.4398 53.8283 53.705 53.8283 54.0292C53.8283 54.3534 53.5631 54.6186 53.2389 54.6186Z" fill="#2E3033"/>
<path d="M53.2389 57.7012H40.7609C40.4367 57.7012 40.1715 57.436 40.1715 57.1118C40.1715 56.7876 40.4367 56.5224 40.7609 56.5224H53.2389C53.5631 56.5224 53.8283 56.7876 53.8283 57.1118C53.8283 57.436 53.5631 57.7012 53.2389 57.7012Z" fill="#2E3033"/>
<path d="M28.92 53.8596H24.6761C22.6507 53.8596 21 52.2088 21 50.1835V30.9776C21 28.9522 22.6507 27.3015 24.6761 27.3015H44.3327C46.3581 27.3015 48.0088 28.9522 48.0088 30.9776V37.2937C48.0088 37.6157 47.7454 37.8791 47.4234 37.8791C47.1015 37.8791 46.8381 37.6157 46.8381 37.2937V30.9776C46.8381 29.5961 45.7141 28.4722 44.3327 28.4722H24.6761C23.2946 28.4722 22.1707 29.5961 22.1707 30.9776V50.1835C22.1707 51.5649 23.2946 52.6888 24.6761 52.6888H28.92C29.242 52.6888 29.5054 52.9522 29.5054 53.2742C29.5054 53.5961 29.242 53.8596 28.92 53.8596Z" fill="#2E3033"/>
<path d="M28.7444 28.0098C28.4225 28.0098 28.1591 27.7464 28.1591 27.4244V23.9825C28.1591 23.6605 28.4225 23.3971 28.7444 23.3971C29.0664 23.3971 29.3298 23.6605 29.3298 23.9825V27.4244C29.3298 27.7464 29.0664 28.0098 28.7444 28.0098Z" fill="#2E3033"/>
<path d="M40.2644 28.0098C39.9425 28.0098 39.6791 27.7464 39.6791 27.4244V23.9825C39.6791 23.6605 39.9425 23.3971 40.2644 23.3971C40.5864 23.3971 40.8498 23.6605 40.8498 23.9825V27.4244C40.8498 27.7464 40.5864 28.0098 40.2644 28.0098Z" fill="#2E3033"/>
</svg>
