<svg width="152" height="88" viewBox="0 0 152 88" fill="none" xmlns="http://www.w3.org/2000/svg">
<g clip-path="url(#clip0_962_14602)">
<ellipse cx="76.5" cy="86" rx="75.5" ry="3" fill="#D9D9D9"/>
<path d="M96 32H126V58C126 66.8366 118.837 74 110 74H96V32Z" fill="white"/>
<path d="M121 32H139C145.627 32 151 37.3726 151 44V58H121V32Z" fill="white"/>
<path d="M105.982 73.7855H52.5261C45.351 73.7855 39.5347 67.9515 39.5347 60.7546V1.19531H95.4575V57.3475C95.4575 57.3475 93.9319 70.462 105.982 73.7855Z" fill="white" stroke="#2E3033" stroke-width="2" stroke-linecap="round" stroke-linejoin="round"/>
<path d="M105.982 73.7855H52.5261C45.351 73.7855 39.5347 67.9515 39.5347 60.7546V1.19531H95.4575V57.3475C95.4575 57.3475 93.9319 70.462 105.982 73.7855Z" fill="#F7F7F9" stroke="#2E3033" stroke-width="2" stroke-linecap="round" stroke-linejoin="round"/>
<path d="M105.886 73.7859H112.096C119.497 73.7859 125.493 67.665 125.493 60.253V43.1455" stroke="#2E3033" stroke-width="2" stroke-linecap="round" stroke-linejoin="round"/>
<path d="M105.886 73.7859H112.096C119.497 73.7859 125.493 67.665 125.493 60.253V43.1455" stroke="#2E3033" stroke-width="2" stroke-linecap="round" stroke-linejoin="round"/>
<path d="M95.8389 31.5371H138.115" stroke="#2E3033" stroke-width="2" stroke-linecap="round" stroke-linejoin="round"/>
<path d="M95.8389 31.5371H138.115" stroke="#2E3033" stroke-width="2" stroke-linecap="round" stroke-linejoin="round"/>
<path d="M125.481 56.2959V43.4803C125.481 36.8334 130.856 31.5254 137.483 31.5254H138.794C145.421 31.5254 150.796 36.8334 150.796 43.4803V57.611" stroke="#2E3033" stroke-width="2" stroke-linecap="round" stroke-linejoin="round"/>
<path d="M125.481 56.2959V43.4803C125.481 36.8334 130.856 31.5254 137.483 31.5254H138.794C145.421 31.5254 150.796 36.8334 150.796 43.4803V57.611" stroke="#2E3033" stroke-width="2" stroke-linecap="round" stroke-linejoin="round"/>
<path d="M7.61604 63.4135C15.3036 58.3207 8.28349 54.2321 8.28349 54.2321L5.8163 53.0605L1.87119 60.4726C1.39444 61.3692 1.15607 62.3854 1.20374 63.4015L1.22758 63.9156C3.49214 63.4972 5.23228 65.0035 7.61604 63.4135Z" fill="white" stroke="#2E3033" stroke-width="2" stroke-linecap="round" stroke-linejoin="round"/>
<path d="M54.719 56.6946C54.719 56.6946 58.4854 56.3838 61.4889 55.0807C60.8214 54.8536 60.2017 54.5188 59.6534 54.0645L46.9361 43.4725C45.8991 42.6117 44.6119 42.1455 43.2651 42.1455H33.7301H15.0772C12.9557 42.1455 11.0129 43.3171 10.0117 45.194L8.70068 47.6567C12.5266 51.1834 20.0712 56.5512 30.8338 56.7066C46.9122 56.9337 54.719 56.7066 54.719 56.7066V56.6946Z" fill="#F7F7F9"/>
<path d="M33.7301 42.1455H43.2651C44.6119 42.1455 45.8991 42.6117 46.9361 43.4725L59.6534 54.0645C60.2017 54.5188 60.8214 54.8536 61.4889 55.0807C58.4854 56.3838 54.719 56.6946 54.719 56.6946V56.7066C54.719 56.7066 46.9122 56.9337 30.8338 56.7066C20.0712 56.5512 12.5266 51.1834 8.70068 47.6567L10.0117 45.194C11.0129 43.3171 12.9557 42.1455 15.0772 42.1455H33.7301ZM33.7301 42.1455V56.6946" stroke="#2E3033" stroke-width="2" stroke-linecap="round" stroke-linejoin="round"/>
<path d="M71.5246 56.7424C69.2005 56.0012 66.4115 55.5111 63.0504 55.3796C62.514 55.3557 61.9896 55.2481 61.4771 55.0688C58.4855 56.3718 54.7072 56.6827 54.7072 56.6827C54.7072 56.6827 46.8885 56.9098 30.822 56.6827C20.0594 56.5273 12.5148 51.1715 8.68889 47.6328L5.80454 53.0364L8.27173 54.208C8.27173 54.208 10.7508 55.8697 7.60428 59.8029C5.80454 62.0504 3.48039 63.485 1.21582 63.8915L1.37076 71.5067C1.48995 74.6031 4.02865 77.0419 7.10369 77.0419H7.58044C7.58044 76.8984 7.5566 76.743 7.5566 76.5995C7.5566 71.5307 11.6567 67.4182 16.7102 67.4182C21.7638 67.4182 25.8638 71.5307 25.8638 76.5995C25.8638 76.7549 25.8519 76.8984 25.84 77.0419H55.8514C55.8514 76.8984 55.8276 76.743 55.8276 76.5995C55.8276 71.5307 59.9277 67.4182 64.9812 67.4182C70.0348 67.4182 74.1348 71.5307 74.1348 76.5995C74.1348 76.7549 74.1229 76.8984 74.111 77.0419H79.8916C81.5364 77.0419 82.8355 75.6551 82.7402 74.0053C82.6091 71.71 81.9535 64.8837 79.6651 61.9906" fill="#F7F7F9"/>
<path d="M71.5246 56.7424C69.2005 56.0012 66.4115 55.5111 63.0504 55.3796C62.514 55.3557 61.9896 55.2481 61.4771 55.0688C58.4855 56.3718 54.7072 56.6827 54.7072 56.6827C54.7072 56.6827 46.8885 56.9098 30.822 56.6827C20.0594 56.5273 12.5148 51.1715 8.68889 47.6328L5.80454 53.0364L8.27173 54.208C8.27173 54.208 10.7508 55.8697 7.60428 59.8029C5.80455 62.0504 3.48039 63.485 1.21582 63.8915L1.37076 71.5067C1.48995 74.6031 4.02865 77.0419 7.10369 77.0419H7.58044C7.58044 76.8984 7.5566 76.743 7.5566 76.5995C7.5566 71.5307 11.6567 67.4182 16.7102 67.4182C21.7638 67.4182 25.8638 71.5307 25.8638 76.5995C25.8638 76.7549 25.8519 76.8984 25.84 77.0419H55.8514C55.8514 76.8984 55.8276 76.743 55.8276 76.5995C55.8276 71.5307 59.9277 67.4182 64.9812 67.4182C70.0348 67.4182 74.1348 71.5307 74.1348 76.5995C74.1348 76.7549 74.1229 76.8984 74.111 77.0419H79.8916C81.5364 77.0419 82.8355 75.6551 82.7402 74.0053C82.6091 71.71 81.9535 64.8837 79.6651 61.9906M34.8506 64.9555H42.6693" stroke="#2E3033" stroke-width="2" stroke-linecap="round" stroke-linejoin="round"/>
<path d="M75.8628 63.879C77.4122 63.879 78.7709 63.1498 79.6649 62.026C77.9843 59.91 75.4099 57.9853 71.5243 56.7539C71.1787 57.4234 70.9761 58.1765 70.9761 58.9775C70.9761 61.6913 73.1691 63.891 75.8747 63.891L75.8628 63.879Z" fill="white" stroke="#2E3033" stroke-width="2" stroke-linecap="round" stroke-linejoin="round"/>
<path d="M65.5536 65.7139C60.2894 65.7139 56.0186 70.0005 56.0186 75.284C56.0186 75.446 56.031 75.5955 56.0434 75.7451C56.2917 80.8168 60.4508 84.8417 65.5536 84.8417C70.6563 84.8417 74.8154 80.8043 75.0637 75.7451C75.0637 75.5955 75.0886 75.4336 75.0886 75.284C75.0886 70.0005 70.8177 65.7139 65.5536 65.7139Z" fill="#F7F7F9" stroke="#2E3033" stroke-width="2" stroke-miterlimit="10"/>
<path d="M17.0917 65.7139C11.8275 65.7139 7.55664 70.0005 7.55664 75.284C7.55664 75.446 7.56906 75.5955 7.58147 75.7451C7.82978 80.8168 11.9889 84.8417 17.0917 84.8417C22.1944 84.8417 26.3535 80.8043 26.6018 75.7451C26.6018 75.5955 26.6267 75.4336 26.6267 75.284C26.6267 70.0005 22.3558 65.7139 17.0917 65.7139Z" fill="#F7F7F9" stroke="#2E3033" stroke-width="2" stroke-miterlimit="10"/>
<path d="M16.6865 70.4961C14.0544 70.4961 11.9189 72.6394 11.9189 75.2812C11.9189 75.3622 11.9252 75.4369 11.9314 75.5117C12.0555 78.0475 14.1351 80.06 16.6865 80.06C19.2378 80.06 21.3174 78.0413 21.4415 75.5117C21.4415 75.4369 21.454 75.3559 21.454 75.2812C21.454 72.6394 19.3185 70.4961 16.6865 70.4961Z" fill="#F47A20"/>
<path d="M65.5536 70.4961C62.9216 70.4961 60.7861 72.6394 60.7861 75.2812C60.7861 75.3622 60.7923 75.4369 60.7985 75.5117C60.9227 78.0475 63.0023 80.06 65.5536 80.06C68.105 80.06 70.1846 78.0413 70.3087 75.5117C70.3087 75.4369 70.3211 75.3559 70.3211 75.2812C70.3211 72.6394 68.1857 70.4961 65.5536 70.4961Z" fill="#F47A20"/>
<path d="M48.3901 23.5508H76.0655" stroke="#F47A20" stroke-width="2" stroke-linecap="round" stroke-linejoin="round"/>
<path d="M48.3901 15.0986H76.0655" stroke="#F47A20" stroke-width="2" stroke-linecap="round" stroke-linejoin="round"/>
<path d="M48.3901 32.0156H76.0655" stroke="#F47A20" stroke-width="2" stroke-linecap="round" stroke-linejoin="round"/>
<path d="M80.9282 32.0156H85.7911" stroke="#F47A20" stroke-width="2" stroke-linecap="round" stroke-linejoin="round"/>
</g>
<defs>
<clipPath id="clip0_962_14602">
<rect width="152" height="88" fill="white"/>
</clipPath>
</defs>
</svg>
