<svg width="68" height="63" viewBox="0 0 68 63" fill="none" xmlns="http://www.w3.org/2000/svg">
<g clip-path="url(#clip0_707_5311)">
<path d="M20.2266 55.6808V59.9592C20.2266 61.0444 19.3461 61.916 18.2698 61.916H14.2227C13.1375 61.916 12.2659 61.0355 12.2659 59.9592V55.6808" fill="white"/>
<path d="M20.2266 55.6808V59.9592C20.2266 61.0444 19.3461 61.916 18.2698 61.916H14.2227C13.1375 61.916 12.2659 61.0355 12.2659 59.9592V55.6808" stroke="#62686E" stroke-width="2" stroke-linecap="round" stroke-linejoin="round"/>
<path d="M55.7431 55.6808V59.9592C55.7431 61.0444 54.8625 61.916 53.7863 61.916H49.7392C48.654 61.916 47.7823 61.0355 47.7823 59.9592V55.6808" fill="white"/>
<path d="M55.7431 55.6808V59.9592C55.7431 61.0444 54.8625 61.916 53.7863 61.916H49.7392C48.654 61.916 47.7823 61.0355 47.7823 59.9592V55.6808" stroke="#62686E" stroke-width="2" stroke-linecap="round" stroke-linejoin="round"/>
<path d="M8.44113 36.3882H1.6011C1.20974 36.3882 0.889526 36.0769 0.889526 35.6855C0.889526 33.0171 3.05094 30.8557 5.71935 30.8557H11.3764" fill="white"/>
<path d="M8.44113 36.3882H1.6011C1.20974 36.3882 0.889526 36.0769 0.889526 35.6855C0.889526 33.0171 3.05094 30.8557 5.71935 30.8557H11.3764" stroke="#62686E" stroke-width="2" stroke-linecap="round" stroke-linejoin="round"/>
<path d="M59.559 36.3882H66.399C66.7904 36.3882 67.1017 36.068 67.1017 35.6855C67.1017 33.0171 64.9403 30.8557 62.2719 30.8557H56.6149" fill="white"/>
<path d="M59.559 36.3882H66.399C66.7904 36.3882 67.1017 36.068 67.1017 35.6855C67.1017 33.0171 64.9403 30.8557 62.2719 30.8557H56.6149" stroke="#62686E" stroke-width="2" stroke-linecap="round" stroke-linejoin="round"/>
<path d="M10.7804 34.6894L13.093 22.6815C13.689 19.8085 16.9978 17.6827 20.8848 17.6827H47.1153C51.0022 17.6827 54.32 19.8085 54.907 22.6815L57.2196 34.6894" fill="white"/>
<path d="M59.2388 55.7609H8.77026C6.73338 55.7609 5.07007 54.1065 5.07007 52.0696V46.3414C5.07007 39.3235 10.7538 33.6309 17.7717 33.6309H50.2196C57.2375 33.6309 62.9301 39.3235 62.9301 46.3414V52.0696C62.9301 54.1065 61.2757 55.7698 59.2299 55.7698L59.2388 55.7609Z" fill="white"/>
<path d="M11.9456 28.6142C11.999 28.6231 12.0613 28.632 12.1146 28.632C12.5327 28.632 12.9063 28.3385 12.9863 27.9116L13.6534 24.4426C13.7424 23.9623 13.431 23.4909 12.9507 23.4019C12.4704 23.313 11.999 23.6243 11.91 24.1046L11.2429 27.5736C11.154 28.0539 11.4653 28.5253 11.9456 28.6142Z" fill="#62686E"/>
<path d="M53.5372 18.9368C52.5855 18.1541 51.3936 17.5403 50.0772 17.1846C49.6058 17.0511 49.1166 17.3358 48.9831 17.8072C48.8497 18.2786 49.1343 18.7678 49.6058 18.9012C50.6731 19.1948 51.6427 19.684 52.3987 20.3155C52.5677 20.4489 52.7634 20.5201 52.968 20.5201C53.2259 20.5201 53.475 20.4133 53.6529 20.1999C53.9642 19.8174 53.9108 19.257 53.5372 18.9457V18.9368Z" fill="#62686E"/>
<path d="M18.9902 17.8072C18.8568 17.3358 18.3676 17.0601 17.8962 17.1935C16.5886 17.5582 15.3879 18.1719 14.445 18.9635C14.0714 19.2748 14.0181 19.8352 14.3294 20.2177C14.5073 20.4311 14.7563 20.5379 15.0143 20.5379C15.2189 20.5379 15.4145 20.4667 15.5835 20.3333C16.3396 19.7018 17.3002 19.2126 18.3765 18.919C18.8479 18.7856 19.1236 18.2964 18.9902 17.825V17.8072Z" fill="#62686E"/>
<path d="M55.8766 28.6054C55.93 28.6054 55.9922 28.6053 56.0456 28.5876C56.5259 28.4986 56.8461 28.0272 56.7483 27.5469L56.0812 24.0779C55.9922 23.5976 55.5297 23.2863 55.0405 23.3753C54.5602 23.4642 54.24 23.9356 54.3378 24.4159L55.0049 27.8849C55.085 28.3118 55.4585 28.6054 55.8766 28.6054Z" fill="#62686E"/>
<path d="M41.0491 18.5632H44.5803C45.0695 18.5632 45.4698 18.163 45.4698 17.6738C45.4698 17.1846 45.0695 16.7843 44.5803 16.7843H41.0491C40.5599 16.7843 40.1597 17.1846 40.1597 17.6738C40.1597 18.163 40.5599 18.5632 41.0491 18.5632Z" fill="#62686E"/>
<path d="M23.402 18.5632H26.9332C27.4225 18.5632 27.8227 18.163 27.8227 17.6738C27.8227 17.1846 27.4225 16.7843 26.9332 16.7843H23.402C22.9128 16.7843 22.5126 17.1846 22.5126 17.6738C22.5126 18.163 22.9128 18.5632 23.402 18.5632Z" fill="#62686E"/>
<path d="M32.2255 18.5632H35.7567C36.2459 18.5632 36.6462 18.163 36.6462 17.6738C36.6462 17.1846 36.2459 16.7843 35.7567 16.7843H32.2255C31.7363 16.7843 31.3361 17.1846 31.3361 17.6738C31.3361 18.163 31.7363 18.5632 32.2255 18.5632Z" fill="#62686E"/>
<path d="M22.3968 33.622C22.3968 33.1327 21.9966 32.7325 21.5074 32.7325H17.8605C17.3713 32.7325 16.9711 33.1327 16.9711 33.622C16.9711 34.1112 17.3713 34.5114 17.8605 34.5114H21.5074C21.9966 34.5114 22.3968 34.1112 22.3968 33.622Z" fill="#62686E"/>
<path d="M13.6445 54.8714H9.99762C9.50842 54.8714 9.10815 55.2717 9.10815 55.7609C9.10815 56.2501 9.50842 56.6503 9.99762 56.6503H13.6445C14.1337 56.6503 14.5339 56.2501 14.5339 55.7609C14.5339 55.2717 14.1337 54.8714 13.6445 54.8714Z" fill="#62686E"/>
<path d="M5.95948 52.0607V49.9882C5.95948 49.499 5.55922 49.0988 5.07001 49.0988C4.5808 49.0988 4.18054 49.499 4.18054 49.9882V52.0696C4.18054 52.7278 4.31396 53.3593 4.5897 53.9553C4.74091 54.2844 5.06112 54.48 5.39912 54.48C5.52364 54.48 5.64817 54.4534 5.7638 54.4C6.20853 54.1954 6.41311 53.6706 6.20853 53.2259C6.03954 52.8612 5.95948 52.4787 5.95948 52.0696V52.0607Z" fill="#62686E"/>
<path d="M6.59986 40.2308C6.15512 40.0262 5.62144 40.2308 5.41686 40.6666C4.87428 41.8496 4.50071 43.1037 4.32281 44.3935C4.25166 44.8827 4.58965 45.3274 5.07886 45.3986C5.12334 45.3986 5.16781 45.3986 5.20339 45.3986C5.63923 45.3986 6.0217 45.0784 6.08396 44.6336C6.24407 43.5129 6.56428 42.4189 7.0357 41.396C7.24028 40.9512 7.04459 40.4175 6.59986 40.213V40.2308Z" fill="#62686E"/>
<path d="M10.0688 37.3755C10.9316 36.6373 11.8833 36.0235 12.9151 35.561C13.3599 35.3564 13.5644 34.8317 13.3599 34.3869C13.1553 33.9422 12.6305 33.7376 12.1858 33.9422C12.0523 34.0045 11.9278 34.0756 11.7944 34.1379L11.9901 33.115C12.079 32.6347 11.7677 32.1632 11.2874 32.0743C10.8071 31.9854 10.3357 32.2967 10.2467 32.777L9.90871 34.5203C9.86424 34.7516 9.91761 34.9829 10.0332 35.1697C9.64187 35.4365 9.26829 35.7211 8.90361 36.0324C8.53003 36.3527 8.48556 36.913 8.81466 37.2866C8.99256 37.4912 9.24161 37.5979 9.49066 37.5979C9.69524 37.5979 9.89982 37.5268 10.0688 37.3844V37.3755Z" fill="#62686E"/>
<path d="M59.2387 54.8714H55.5919C55.1027 54.8714 54.7024 55.2717 54.7024 55.7609C54.7024 56.2501 55.1027 56.6503 55.5919 56.6503H59.2743L59.2832 55.7609V56.6503C59.7724 56.6503 60.146 56.2501 60.146 55.7609C60.146 55.2717 59.7279 54.8714 59.2298 54.8714H59.2387Z" fill="#62686E"/>
<path d="M57.5043 36.8063C57.7889 36.8063 58.0647 36.6729 58.2337 36.4238C58.5183 36.0235 58.4204 35.4632 58.0113 35.1874C57.9935 35.1786 57.9846 35.1697 57.9668 35.1608C58.0824 34.974 58.1358 34.7516 58.0913 34.5203L57.7533 32.777C57.6644 32.2967 57.193 31.9854 56.7127 32.0743C56.2323 32.1632 55.9121 32.6347 56.01 33.115L56.2057 34.129C55.6631 33.8621 55.1116 33.6309 54.5423 33.4441C54.0798 33.2929 53.5728 33.5419 53.4127 34.0044C53.2526 34.467 53.5106 34.974 53.9731 35.1341C55.0493 35.4899 56.0633 36.0058 56.9884 36.6551C57.1396 36.7618 57.3264 36.8152 57.4954 36.8152L57.5043 36.8063Z" fill="#62686E"/>
<path d="M22.7615 54.8714H19.1147C18.6255 54.8714 18.2252 55.2717 18.2252 55.7609C18.2252 56.2501 18.6255 56.6503 19.1147 56.6503H22.7615C23.2507 56.6503 23.651 56.2501 23.651 55.7609C23.651 55.2717 23.2507 54.8714 22.7615 54.8714Z" fill="#62686E"/>
<path d="M50.1216 54.8714H46.4748C45.9856 54.8714 45.5853 55.2717 45.5853 55.7609C45.5853 56.2501 45.9856 56.6503 46.4748 56.6503H50.1216C50.6108 56.6503 51.0111 56.2501 51.0111 55.7609C51.0111 55.2717 50.6108 54.8714 50.1216 54.8714Z" fill="#62686E"/>
<path d="M62.9301 47.8179C62.4409 47.8179 62.0406 48.2182 62.0406 48.7074V52.0607C62.0406 52.1319 62.0406 52.2119 62.0406 52.2831C62.005 52.7723 62.3697 53.1992 62.8589 53.2348C62.8856 53.2348 62.9034 53.2348 62.9301 53.2348C63.3926 53.2348 63.784 52.879 63.8195 52.4165C63.8284 52.3009 63.8373 52.1763 63.8373 52.0607V48.7074C63.8373 48.2182 63.4371 47.8179 62.9479 47.8179H62.9301Z" fill="#62686E"/>
<path d="M62.77 44.1355C63.2503 44.0199 63.535 43.5395 63.4193 43.0592C63.108 41.7962 62.6099 40.5865 61.9517 39.4569C61.7026 39.0299 61.1601 38.8965 60.7331 39.1367C60.3062 39.3857 60.1639 39.9283 60.4218 40.3552C61 41.3337 61.4269 42.3832 61.6938 43.4862C61.7916 43.8953 62.1563 44.1622 62.5565 44.1622C62.6277 44.1622 62.6989 44.1622 62.77 44.1355Z" fill="#62686E"/>
<path d="M31.8875 54.8714H28.2407C27.7515 54.8714 27.3512 55.2717 27.3512 55.7609C27.3512 56.2501 27.7515 56.6503 28.2407 56.6503H31.8875C32.3767 56.6503 32.777 56.2501 32.777 55.7609C32.777 55.2717 32.3767 54.8714 31.8875 54.8714Z" fill="#62686E"/>
<path d="M49.7482 33.622C49.7482 33.1327 49.3479 32.7325 48.8587 32.7325H45.2119C44.7226 32.7325 44.3224 33.1327 44.3224 33.622C44.3224 34.1112 44.7226 34.5114 45.2119 34.5114H48.8587C49.3479 34.5114 49.7482 34.1112 49.7482 33.622Z" fill="#62686E"/>
<path d="M31.5139 33.622C31.5139 33.1327 31.1136 32.7325 30.6244 32.7325H26.9776C26.4884 32.7325 26.0881 33.1327 26.0881 33.622C26.0881 34.1112 26.4884 34.5114 26.9776 34.5114H30.6244C31.1136 34.5114 31.5139 34.1112 31.5139 33.622Z" fill="#62686E"/>
<path d="M40.6311 33.622C40.6311 33.1327 40.2308 32.7325 39.7416 32.7325H36.0948C35.6056 32.7325 35.2053 33.1327 35.2053 33.622C35.2053 34.1112 35.6056 34.5114 36.0948 34.5114H39.7416C40.2308 34.5114 40.6311 34.1112 40.6311 33.622Z" fill="#62686E"/>
<path d="M41.0046 54.8714H37.3577C36.8685 54.8714 36.4683 55.2717 36.4683 55.7609C36.4683 56.2501 36.8685 56.6503 37.3577 56.6503H41.0046C41.4938 56.6503 41.894 56.2501 41.894 55.7609C41.894 55.2717 41.4938 54.8714 41.0046 54.8714Z" fill="#62686E"/>
<path d="M15.4057 46.3592C17.2871 46.3592 18.8124 44.834 18.8124 42.9525C18.8124 41.0711 17.2871 39.5458 15.4057 39.5458C13.5242 39.5458 11.999 41.0711 11.999 42.9525C11.999 44.834 13.5242 46.3592 15.4057 46.3592Z" fill="white" stroke="#62686E" stroke-width="2" stroke-linecap="round" stroke-linejoin="round"/>
<path d="M52.5944 46.3592C54.4759 46.3592 56.0011 44.834 56.0011 42.9525C56.0011 41.0711 54.4759 39.5458 52.5944 39.5458C50.713 39.5458 49.1877 41.0711 49.1877 42.9525C49.1877 44.834 50.713 46.3592 52.5944 46.3592Z" fill="white" stroke="#62686E" stroke-width="2" stroke-linecap="round" stroke-linejoin="round"/>
<path d="M24.3538 43.0681H43.6464" stroke="#62686E" stroke-width="2" stroke-linecap="round" stroke-linejoin="round"/>
<path d="M24.3538 47.8357H43.6464" stroke="#62686E" stroke-width="2" stroke-linecap="round" stroke-linejoin="round"/>
<path d="M34.0044 29.4415C41.8888 29.4415 48.2804 23.0499 48.2804 15.1655C48.2804 7.28105 41.8888 0.889465 34.0044 0.889465C26.12 0.889465 19.7284 7.28105 19.7284 15.1655C19.7284 23.0499 26.12 29.4415 34.0044 29.4415Z" fill="#F47A20" stroke="white" stroke-width="2" stroke-miterlimit="10"/>
<path d="M29.2102 12.1057C29.2102 11.4919 29.4059 10.8782 29.7973 10.2556C30.1886 9.63294 30.7579 9.10816 31.5139 8.699C32.2611 8.28984 33.1417 8.08527 34.1468 8.08527C35.0807 8.08527 35.899 8.25427 36.6106 8.60116C37.3222 8.94805 37.8736 9.41058 38.265 10.0065C38.6564 10.5936 38.8521 11.2429 38.8521 11.9367C38.8521 12.4792 38.7453 12.9596 38.523 13.3687C38.3006 13.7779 38.0426 14.1337 37.7313 14.4361C37.4289 14.7296 36.8774 15.2366 36.0858 15.9393C35.8634 16.135 35.6944 16.3129 35.561 16.4641C35.4276 16.6153 35.3298 16.7487 35.2675 16.8732C35.2052 16.9978 35.1519 17.1223 35.1163 17.2468C35.0807 17.3713 35.0273 17.5937 34.9562 17.905C34.8317 18.5721 34.4492 18.9101 33.8088 18.9101C33.4708 18.9101 33.195 18.8034 32.9638 18.581C32.7325 18.3586 32.6258 18.0384 32.6258 17.6115C32.6258 17.0689 32.7058 16.6064 32.8748 16.2061C33.0438 15.8148 33.2662 15.4679 33.5419 15.1654C33.8177 14.863 34.1912 14.5161 34.6627 14.0981C35.0718 13.7423 35.3742 13.4666 35.5521 13.2887C35.7389 13.1019 35.8901 12.8973 36.0147 12.6749C36.1392 12.4526 36.2014 12.2035 36.2014 11.9456C36.2014 11.4297 36.0147 11.0027 35.6322 10.6469C35.2497 10.2912 34.7605 10.1133 34.1557 10.1133C33.453 10.1133 32.9282 10.2912 32.5991 10.6469C32.2611 11.0027 31.9854 11.5275 31.7541 12.2213C31.5317 12.9507 31.1226 13.3065 30.5088 13.3065C30.153 13.3065 29.8417 13.1819 29.6016 12.924C29.3525 12.6749 29.228 12.3992 29.228 12.1057H29.2102ZM33.9066 22.6548C33.5152 22.6548 33.1772 22.5303 32.8837 22.2723C32.5902 22.0144 32.4479 21.6675 32.4479 21.205C32.4479 20.8047 32.5902 20.4578 32.8748 20.1821C33.1595 19.9063 33.5063 19.764 33.9155 19.764C34.3247 19.764 34.6627 19.9063 34.9384 20.1821C35.2141 20.4578 35.3564 20.7958 35.3564 21.205C35.3564 21.6586 35.2141 22.0055 34.9206 22.2634C34.636 22.5214 34.298 22.6459 33.9155 22.6459L33.9066 22.6548Z" fill="white"/>
</g>
<defs>
<clipPath id="clip0_707_5311">
<rect width="68" height="62.8144" fill="white"/>
</clipPath>
</defs>
</svg>
