<svg width="25" height="24" viewBox="0 0 25 24" fill="none" xmlns="http://www.w3.org/2000/svg">
<g id="warning">
<path id="Vector" d="M4.97012 20.9997H20.0301C21.5701 20.9997 22.5301 19.3297 21.7601 17.9997L14.2301 4.98969C13.4601 3.65969 11.5401 3.65969 10.7701 4.98969L3.24012 17.9997C2.47012 19.3297 3.43012 20.9997 4.97012 20.9997ZM12.5001 13.9997C11.9501 13.9997 11.5001 13.5497 11.5001 12.9997V10.9997C11.5001 10.4497 11.9501 9.99969 12.5001 9.99969C13.0501 9.99969 13.5001 10.4497 13.5001 10.9997V12.9997C13.5001 13.5497 13.0501 13.9997 12.5001 13.9997ZM13.5001 17.9997H11.5001V15.9997H13.5001V17.9997Z" fill="url(#paint0_linear_1139_25429)"/>
</g>
<defs>
<linearGradient id="paint0_linear_1139_25429" x1="18.0104" y1="4.65654" x2="4.9656" y2="22.4626" gradientUnits="userSpaceOnUse">
<stop stop-color="#FA4E29"/>
<stop offset="1" stop-color="#FF7D05"/>
</linearGradient>
</defs>
</svg>
