<svg width="68" height="48" viewBox="0 0 68 48" fill="none" xmlns="http://www.w3.org/2000/svg">
<g id="Layer_1" clip-path="url(#clip0_707_5251)">
<g id="Group">
<g id="&#237;&#140;&#168;&#236;&#138;&#164; 1235">
<path d="M8.93286 18.9856H2.29997C1.92095 18.9856 1.61084 18.6841 1.61084 18.305C1.61084 15.7208 3.70408 13.6276 6.28832 13.6276H11.7669" fill="white"/>
<path d="M8.93286 18.9856H2.29997C1.92095 18.9856 1.61084 18.6841 1.61084 18.305C1.61084 15.7208 3.70408 13.6276 6.28832 13.6276H11.7669" stroke="#2E3033" stroke-width="2" stroke-linecap="round" stroke-linejoin="round"/>
</g>
<g id="&#237;&#140;&#168;&#236;&#138;&#164; 1236">
<path d="M58.4383 18.9856H65.0626C65.4416 18.9856 65.7431 18.6754 65.7431 18.305C65.7431 15.7208 63.6499 13.6276 61.0656 13.6276H55.587" fill="white"/>
<path d="M58.4383 18.9856H65.0626C65.4416 18.9856 65.7431 18.6754 65.7431 18.305C65.7431 15.7208 63.6499 13.6276 61.0656 13.6276H55.587" stroke="#2E3033" stroke-width="2" stroke-linecap="round" stroke-linejoin="round"/>
</g>
<g id="&#237;&#140;&#168;&#236;&#138;&#164; 1234">
<path d="M11.1984 17.3403L13.438 5.7112C14.0152 2.92883 17.2196 0.870056 20.984 0.870056H46.3871C50.1515 0.870056 53.3646 2.92883 53.9331 5.7112L56.1728 17.3403" fill="white"/>
<path d="M11.1984 17.3403L13.438 5.7112C14.0152 2.92883 17.2196 0.870056 20.984 0.870056H46.3871C50.1515 0.870056 53.3646 2.92883 53.9331 5.7112L56.1728 17.3403" stroke="#2E3033" stroke-width="2" stroke-linecap="round" stroke-linejoin="round"/>
</g>
<path id="&#237;&#140;&#168;&#236;&#138;&#164; 1231" d="M5.66809 35.6712V34.1637V28.6162C5.66809 21.8196 11.1725 16.3066 17.9691 16.3066H49.3935C56.19 16.3066 61.703 21.8196 61.703 28.6162V35.6712" stroke="#2E3033" stroke-width="2" stroke-linecap="round" stroke-linejoin="round"/>
<path id="&#237;&#131;&#128;&#236;&#155;&#144; 100" d="M15.6778 28.642C17.4999 28.642 18.977 27.1649 18.977 25.3428C18.977 23.5207 17.4999 22.0436 15.6778 22.0436C13.8556 22.0436 12.3785 23.5207 12.3785 25.3428C12.3785 27.1649 13.8556 28.642 15.6778 28.642Z" fill="white" stroke="#2E3033" stroke-width="2" stroke-linecap="round" stroke-linejoin="round"/>
<path id="&#237;&#131;&#128;&#236;&#155;&#144; 101" d="M51.6934 28.642C53.5155 28.642 54.9927 27.1649 54.9927 25.3428C54.9927 23.5207 53.5155 22.0436 51.6934 22.0436C49.8713 22.0436 48.3942 23.5207 48.3942 25.3428C48.3942 27.1649 49.8713 28.642 51.6934 28.642Z" fill="white" stroke="#2E3033" stroke-width="2" stroke-linecap="round" stroke-linejoin="round"/>
<path id="&#236;&#132;&#160; 385" d="M24.3436 25.4548H43.0276" stroke="#2E3033" stroke-width="2" stroke-linecap="round" stroke-linejoin="round"/>
<path id="&#236;&#132;&#160; 386" d="M24.3436 30.072H43.0276" stroke="#2E3033" stroke-width="2" stroke-linecap="round" stroke-linejoin="round"/>
</g>
<path id="Vector" d="M1.29211 34.6375C5.96098 34.6375 5.96098 38.0831 10.6298 38.0831C15.2987 38.0831 15.2987 34.6375 19.9676 34.6375C24.6364 34.6375 24.6364 38.0831 29.3139 38.0831C33.9914 38.0831 33.9914 34.6375 38.6602 34.6375C43.3291 34.6375 43.3291 38.0831 48.0066 38.0831C52.6841 38.0831 52.6841 34.6375 57.3529 34.6375C62.0218 34.6375 62.0304 38.0831 66.6993 38.0831" stroke="#2E3033" stroke-width="2" stroke-linecap="round" stroke-linejoin="round"/>
<path id="Vector_2" d="M1.29211 42.9243C5.96098 42.9243 5.96098 46.3699 10.6298 46.3699C15.2987 46.3699 15.2987 42.9243 19.9676 42.9243C24.6364 42.9243 24.6364 46.3699 29.3139 46.3699C33.9914 46.3699 33.9914 42.9243 38.6602 42.9243C43.3291 42.9243 43.3291 46.3699 48.0066 46.3699C52.6841 46.3699 52.6841 42.9243 57.3529 42.9243C62.0218 42.9243 62.0304 46.3699 66.6993 46.3699" stroke="#F47A20" stroke-width="3" stroke-miterlimit="10" stroke-linecap="round"/>
<path id="Vector_3" d="M1.29211 34.6375C5.96098 34.6375 5.96098 38.0831 10.6298 38.0831C15.2987 38.0831 15.2987 34.6375 19.9676 34.6375C24.6364 34.6375 24.6364 38.0831 29.3139 38.0831C33.9914 38.0831 33.9914 34.6375 38.6602 34.6375C43.3291 34.6375 43.3291 38.0831 48.0066 38.0831C52.6841 38.0831 52.6841 34.6375 57.3529 34.6375C62.0218 34.6375 62.0304 38.0831 66.6993 38.0831" stroke="#F47A20" stroke-width="3" stroke-miterlimit="10" stroke-linecap="round"/>
</g>
<defs>
<clipPath id="clip0_707_5251">
<rect width="68" height="47.662" fill="white"/>
</clipPath>
</defs>
</svg>
