<svg width="160" height="120" viewBox="0 0 160 120" fill="none" xmlns="http://www.w3.org/2000/svg">
<g id="join step 2">
<g id="Group 18574">
<g id="Group">
<path id="Vector" d="M119.272 18.165H60.0509C56.8216 18.165 54.2036 20.783 54.2036 24.0124V98.1166C54.2036 101.346 56.8216 103.964 60.0509 103.964H119.272C122.501 103.964 125.119 101.346 125.119 98.1166V24.0124C125.119 20.783 122.501 18.165 119.272 18.165Z" fill="#F37A20" stroke="#2E3032" stroke-width="2" stroke-linecap="round" stroke-linejoin="round"/>
<path id="Vector_2" d="M113.674 26.2144H65.6386C63.8719 26.2144 62.4397 27.6465 62.4397 29.4132V92.7056C62.4397 94.4723 63.8719 95.9045 65.6386 95.9045H113.674C115.441 95.9045 116.873 94.4723 116.873 92.7056V29.4132C116.873 27.6465 115.441 26.2144 113.674 26.2144Z" fill="white"/>
<path id="Vector_3" d="M99.4346 12.6294C99.5281 12.0893 99.6008 11.5388 99.6008 10.978C99.6008 5.48379 95.1452 1.03857 89.6614 1.03857C84.1775 1.03857 79.7219 5.49417 79.7219 10.978C79.7219 11.5388 79.7946 12.0893 79.8881 12.6294H67.4561V29.1951H111.856V12.6294H99.4242H99.4346Z" fill="white" stroke="#2E3032" stroke-width="2" stroke-linecap="round" stroke-linejoin="round"/>
<g id="Group_2">
<path id="Vector_4" d="M71.2056 48.0559H98.5104" stroke="#F37A20" stroke-width="2" stroke-linecap="round" stroke-linejoin="round"/>
<path id="Vector_5" d="M71.2056 39.7368H98.5104" stroke="#F37A20" stroke-width="2" stroke-linecap="round" stroke-linejoin="round"/>
<path id="Vector_6" d="M71.2056 56.3752H98.5104" stroke="#F37A20" stroke-width="2" stroke-linecap="round" stroke-linejoin="round"/>
<path id="Vector_7" d="M103.309 56.3752H108.107" stroke="#F37A20" stroke-width="2" stroke-linecap="round" stroke-linejoin="round"/>
</g>
</g>
<g id="Group_3">
<path id="Vector_8" d="M39.4555 103.476C44.7835 99.9549 39.9229 97.1299 39.9229 97.1299L38.2196 96.3198L35.4777 101.451C35.1453 102.074 34.9791 102.77 35.0103 103.476V103.829C36.5994 103.538 37.7937 104.577 39.4555 103.476Z" fill="white" stroke="#2E3032" stroke-width="2" stroke-linecap="round" stroke-linejoin="round"/>
<g id="Vector_9">
<path d="M72.1196 98.8333C72.1196 98.8333 74.7369 98.6152 76.8141 97.7116C76.3571 97.5559 75.9209 97.3274 75.547 97.0158L66.7292 89.6936C66.0126 89.1016 65.109 88.7693 64.1847 88.7693H57.5688H44.6278C43.153 88.7693 41.8028 89.5794 41.1173 90.8776L40.2034 92.581C42.8518 95.0217 48.0864 98.7295 55.5539 98.8333C66.6981 98.9891 72.1196 98.8333 72.1196 98.8333Z" fill="white"/>
<path d="M57.5688 88.7693H64.1847C65.109 88.7693 66.0126 89.1016 66.7292 89.6936L75.547 97.0158C75.9209 97.3274 76.3571 97.5559 76.8141 97.7116C74.7369 98.6152 72.1196 98.8333 72.1196 98.8333C72.1196 98.8333 66.6981 98.9891 55.5539 98.8333C48.0864 98.7295 42.8518 95.0217 40.2034 92.581L41.1173 90.8776C41.8028 89.5794 43.153 88.7693 44.6278 88.7693H57.5688ZM57.5688 88.7693V98.8333" stroke="#2E3032" stroke-width="2" stroke-linecap="round" stroke-linejoin="round"/>
</g>
<g id="Vector_10">
<path d="M83.7727 98.8645C82.1629 98.3555 80.2311 98.0128 77.8942 97.9297C77.5203 97.9193 77.1568 97.8362 76.8037 97.722C74.7265 98.6256 72.1092 98.8437 72.1092 98.8437C72.1092 98.8437 66.6877 98.9995 55.5435 98.8437C48.0864 98.7398 42.8414 95.032 40.193 92.5913L38.1989 96.3303L39.9022 97.1404C39.9022 97.1404 41.6263 98.2932 39.4348 101.014C38.1885 102.562 36.5683 103.559 35 103.839L35.1039 109.105C35.1869 111.245 36.9422 112.938 39.0817 112.938H39.4037C39.4037 112.834 39.3829 112.73 39.3829 112.626C39.3829 109.115 42.2287 106.28 45.7288 106.28C49.2288 106.28 52.0746 109.126 52.0746 112.626C52.0746 112.73 52.0642 112.834 52.0538 112.938H72.8674C72.8674 112.834 72.8466 112.73 72.8466 112.626C72.8466 109.115 75.6924 106.28 79.1925 106.28C82.6926 106.28 85.5383 109.126 85.5383 112.626C85.5383 112.73 85.528 112.834 85.5176 112.938H89.5266C90.669 112.938 91.5622 111.982 91.4999 110.84C91.4168 109.25 90.9598 104.535 89.3604 102.531" fill="white"/>
<path d="M83.7727 98.8645C82.1629 98.3555 80.2311 98.0128 77.8942 97.9297C77.5203 97.9193 77.1568 97.8362 76.8037 97.722C74.7265 98.6256 72.1092 98.8437 72.1092 98.8437C72.1092 98.8437 66.6877 98.9995 55.5435 98.8437C48.0864 98.7398 42.8414 95.032 40.193 92.5913L38.1989 96.3303L39.9022 97.1404C39.9022 97.1404 41.6263 98.2932 39.4348 101.014C38.1885 102.562 36.5683 103.559 35 103.839L35.1039 109.105C35.1869 111.245 36.9422 112.938 39.0817 112.938H39.4037C39.4037 112.834 39.3829 112.73 39.3829 112.626C39.3829 109.115 42.2287 106.28 45.7288 106.28C49.2288 106.28 52.0746 109.126 52.0746 112.626C52.0746 112.73 52.0642 112.834 52.0538 112.938H72.8674C72.8674 112.834 72.8466 112.73 72.8466 112.626C72.8466 109.115 75.6924 106.28 79.1925 106.28C82.6926 106.28 85.5383 109.126 85.5383 112.626C85.5383 112.73 85.528 112.834 85.5176 112.938H89.5266C90.669 112.938 91.5622 111.982 91.4999 110.84C91.4168 109.25 90.9598 104.535 89.3604 102.531M58.2751 104.577H63.6966" stroke="#2E3032" stroke-width="2" stroke-linecap="round" stroke-linejoin="round"/>
</g>
<path id="Vector_11" d="M86.7847 103.798C87.8544 103.798 88.7995 103.289 89.4227 102.51C88.2595 101.046 86.4731 99.7162 83.7727 98.8645C83.5338 99.3319 83.3884 99.8408 83.3884 100.402C83.3884 102.271 84.9048 103.798 86.7847 103.798Z" fill="white" stroke="#2E3032" stroke-width="2" stroke-linecap="round" stroke-linejoin="round"/>
<g id="Group_4">
<path id="Vector_12" d="M79.234 106.259C75.7236 106.259 72.8882 109.105 72.8882 112.605C72.8882 112.709 72.8986 112.813 72.909 112.917C73.0751 116.282 75.8378 118.951 79.2444 118.951C82.651 118.951 85.4137 116.271 85.5799 112.917C85.5799 112.813 85.6007 112.709 85.6007 112.605C85.6007 109.095 82.7549 106.259 79.2548 106.259H79.234Z" fill="white" stroke="#2E3032" stroke-width="2" stroke-miterlimit="10"/>
<path id="Vector_13" d="M45.7599 106.259C42.2494 106.259 39.4141 109.105 39.4141 112.605C39.4141 112.709 39.4244 112.813 39.4348 112.917C39.601 116.282 42.3637 118.951 45.7703 118.951C49.1769 118.951 51.9396 116.271 52.1058 112.917C52.1058 112.813 52.1265 112.709 52.1265 112.605C52.1265 109.095 49.2808 106.259 45.7807 106.259H45.7599Z" fill="white" stroke="#2E3032" stroke-width="2" stroke-miterlimit="10"/>
</g>
</g>
</g>
</g>
</svg>
