<svg width="160" height="120" viewBox="0 0 160 120" fill="none" xmlns="http://www.w3.org/2000/svg">
<g id="join step 3">
<g id="Group 18575">
<g id="Group">
<g id="Group_2">
<path id="Vector" d="M89.3181 16H37.0986V52.2122H89.3181V16Z" fill="white" stroke="#2E3032" stroke-width="2" stroke-linecap="round" stroke-linejoin="round"/>
<path id="Vector_2" d="M38.0681 17.5161L58.9641 35.7409C61.3879 37.8552 65.0081 37.8346 67.4009 35.679L89.3077 16" stroke="#2E3032" stroke-width="2" stroke-linecap="round" stroke-linejoin="round"/>
<path id="Vector_3" d="M70.3611 34.8333L88.1526 50.8095" stroke="#2E3032" stroke-width="2" stroke-linecap="round" stroke-linejoin="round"/>
<path id="Vector_4" d="M56.4373 34.8333L38.6355 50.8095" stroke="#2E3032" stroke-width="2" stroke-linecap="round" stroke-linejoin="round"/>
</g>
<path id="Vector_5" d="M29.3633 22.3638H11.1902" stroke="#2E3032" stroke-width="2" stroke-linecap="round" stroke-linejoin="round"/>
<path id="Vector_6" d="M29.3633 45.9414H11.1902" stroke="#2E3032" stroke-width="2" stroke-linecap="round" stroke-linejoin="round"/>
<path id="Vector_7" d="M28.1978 34.1526H1" stroke="#2E3032" stroke-width="2" stroke-linecap="round" stroke-linejoin="round"/>
</g>
<g id="Vector_8">
<path d="M114.804 54.3162L109.492 44.9614L116.186 47.5605L122.9 44.9614L129.615 47.5605L136.267 44.9614L130.955 54.3162" fill="#F37A20"/>
<path d="M114.804 54.3162L109.492 44.9614L116.186 47.5605L122.9 44.9614L129.615 47.5605L136.267 44.9614L130.955 54.3162" stroke="#2E3032" stroke-width="2" stroke-linecap="round" stroke-linejoin="round"/>
</g>
<g id="Vector_9">
<path d="M102.613 77.0482C102.314 75.7383 102.159 74.3665 102.159 72.9742C102.159 62.2167 111.442 53.5015 122.89 53.5015C134.339 53.5015 143.621 62.2167 143.621 72.9742C143.621 74.5522 143.425 76.0787 143.044 77.5432" fill="white"/>
<path d="M102.613 77.0482C102.314 75.7383 102.159 74.3665 102.159 72.9742C102.159 62.2167 111.442 53.5015 122.89 53.5015C134.339 53.5015 143.621 62.2167 143.621 72.9742C143.621 74.5522 143.425 76.0787 143.044 77.5432" stroke="#2E3032" stroke-width="2" stroke-linecap="round" stroke-linejoin="round"/>
</g>
<path id="Vector_10" d="M139.485 73.4383C139.485 65.3419 132.503 58.7822 123.88 58.7822C123.024 58.7822 122.199 58.8647 121.384 58.9885C128.81 60.1127 134.493 66.1464 134.493 73.4383V74.0778L139.485 74.5729V73.428V73.4383Z" fill="#F37A20"/>
<path id="Vector_11" d="M76.5494 86.4337L65.9158 79.5956V83.8656C55.1686 82.4732 46.8659 73.3144 46.8659 62.1857C46.8659 61.7834 46.9072 61.3915 46.9278 60.9893C46.2677 63.0727 45.9067 65.2902 45.9067 67.5902C45.9067 79.0386 54.7045 88.4243 65.9158 89.3732V93.2615L76.5494 86.4234V86.4337Z" fill="#F37A20"/>
<g id="Vector_12">
<path d="M141.228 77.9454C137.969 71.5198 129.058 73.6754 129.058 73.6754L117.434 77.9351H97.8479L97.8995 100.234H121.219C122.746 100.234 124.262 99.9038 125.644 99.2643L158.948 83.9584C158.948 83.9584 158.308 72.6337 142.837 78.2651C127.366 83.8965 124.334 84.9898 124.334 84.9898" fill="white"/>
<path d="M141.228 77.9454C137.969 71.5198 129.058 73.6754 129.058 73.6754L117.434 77.9351H97.8479L97.8995 100.234H121.219C122.746 100.234 124.262 99.9038 125.644 99.2643L158.948 83.9584C158.948 83.9584 158.308 72.6337 142.837 78.2651C127.366 83.8965 124.334 84.9898 124.334 84.9898" stroke="#2E3032" stroke-width="2" stroke-linecap="round" stroke-linejoin="round"/>
</g>
<path id="Vector_13" d="M98.4769 74.9441H86.8325V103.246H98.4769V74.9441Z" fill="white" stroke="#2E3032" stroke-width="2" stroke-linecap="round" stroke-linejoin="round"/>
</g>
</g>
</svg>
