<svg width="160" height="120" viewBox="0 0 160 120" fill="none" xmlns="http://www.w3.org/2000/svg">
<path d="M12.2654 4H57.208C58.9974 4 60.4526 5.45515 60.4526 7.2446V34.2535H9.02075V7.2446C9.02075 5.45515 10.4759 4 12.2654 4Z" fill="white" stroke="#231F20" stroke-width="2" stroke-miterlimit="10"/>
<path d="M65.231 55.2844H4.25215C1.88261 55.2844 0.309473 52.8362 1.30252 50.683L9.02074 33.8799H60.4624L68.1806 50.683C69.1737 52.8362 67.6005 55.2844 65.231 55.2844Z" fill="white" stroke="#231F20" stroke-width="2" stroke-miterlimit="10"/>
<path d="M77.3736 13.8221C76.0659 12.5144 73.952 12.5144 72.6444 13.8221L56.9719 29.4945L49.4307 21.9532C48.123 20.6456 46.0091 20.6456 44.7015 21.9532C43.3938 23.2609 43.3938 25.3748 44.7015 26.6825L54.5532 36.5343C54.5532 36.5343 54.5827 36.5736 54.6024 36.5933C55.9101 37.9009 58.024 37.9009 59.3317 36.5933L77.3736 18.5513C78.6813 17.2436 78.6813 15.1297 77.3736 13.8221Z" fill="#F37A20" stroke="#2E3032" stroke-width="2" stroke-linecap="round" stroke-linejoin="round"/>
<path d="M15.3821 18.2466H35.7444" stroke="#F37A20" stroke-width="2" stroke-linecap="round" stroke-linejoin="round"/>
<path d="M15.3821 11.2954H35.7444" stroke="#F37A20" stroke-width="2" stroke-linecap="round" stroke-linejoin="round"/>
<path d="M134.744 46.5337H54.1602C51.4451 46.5337 49.2441 48.7347 49.2441 51.4498V65.4114C49.2441 68.1264 51.4451 70.3274 54.1602 70.3274H134.744C137.459 70.3274 139.66 68.1264 139.66 65.4114V51.4498C139.66 48.7347 137.459 46.5337 134.744 46.5337Z" fill="white" stroke="#2E3032" stroke-width="2" stroke-linecap="round" stroke-linejoin="round"/>
<path d="M55.7823 51.312H55.7528C55.2044 51.312 54.7598 51.7566 54.7598 52.3051V64.5559C54.7598 65.1043 55.2044 65.5489 55.7528 65.5489H55.7823C56.3308 65.5489 56.7754 65.1043 56.7754 64.5559V52.3051C56.7754 51.7566 56.3308 51.312 55.7823 51.312Z" fill="#2E3032"/>
<path d="M134.744 77.4263H54.1602C51.4451 77.4263 49.2441 79.6273 49.2441 82.3423V96.3039C49.2441 99.019 51.4451 101.22 54.1602 101.22H134.744C137.459 101.22 139.66 99.019 139.66 96.3039V82.3423C139.66 79.6273 137.459 77.4263 134.744 77.4263Z" fill="white" stroke="#2E3032" stroke-width="2" stroke-linecap="round" stroke-linejoin="round"/>
<path d="M60.1578 92.5183C61.9226 92.5183 63.3533 91.0877 63.3533 89.3229C63.3533 87.5581 61.9226 86.1274 60.1578 86.1274C58.393 86.1274 56.9624 87.5581 56.9624 89.3229C56.9624 91.0877 58.393 92.5183 60.1578 92.5183Z" fill="#2E3032"/>
<path d="M71.445 92.5183C73.2097 92.5183 74.6404 91.0877 74.6404 89.3229C74.6404 87.5581 73.2097 86.1274 71.445 86.1274C69.6802 86.1274 68.2495 87.5581 68.2495 89.3229C68.2495 91.0877 69.6802 92.5183 71.445 92.5183Z" fill="#2E3032"/>
<path d="M82.7423 92.5183C84.5071 92.5183 85.9378 91.0877 85.9378 89.3229C85.9378 87.5581 84.5071 86.1274 82.7423 86.1274C80.9775 86.1274 79.5469 87.5581 79.5469 89.3229C79.5469 91.0877 80.9775 92.5183 82.7423 92.5183Z" fill="#2E3032"/>
<path d="M94.0294 92.5183C95.7942 92.5183 97.2249 91.0877 97.2249 89.3229C97.2249 87.5581 95.7942 86.1274 94.0294 86.1274C92.2646 86.1274 90.834 87.5581 90.834 89.3229C90.834 91.0877 92.2646 92.5183 94.0294 92.5183Z" fill="#2E3032"/>
<path d="M105.317 92.5183C107.081 92.5183 108.512 91.0877 108.512 89.3229C108.512 87.5581 107.081 86.1274 105.317 86.1274C103.552 86.1274 102.121 87.5581 102.121 89.3229C102.121 91.0877 103.552 92.5183 105.317 92.5183Z" fill="#2E3032"/>
<path d="M136.347 56.8772C135.875 61.7933 126.161 67.6041 113.733 68.5086V89.2839C113.733 95.5273 116.84 101.505 122.336 105.822L135.57 116.234L149.679 105.89C155.608 101.545 159 95.3306 159 88.8021V68.5086C146.562 67.6041 136.848 61.7933 136.386 56.8772C136.386 56.828 136.357 56.828 136.347 56.8772Z" fill="#F37A20" stroke="#2E3032" stroke-width="2" stroke-linecap="round" stroke-linejoin="round"/>
<path d="M136.357 65.2638C136.022 68.7936 129.051 72.9525 120.144 73.6015V88.4971C120.144 92.9708 122.375 97.2576 126.308 100.355L135.796 107.817L145.914 100.404C150.171 97.2871 152.599 92.8331 152.599 88.153V73.6015C143.682 72.9525 136.721 68.7837 136.386 65.2638C136.386 65.2343 136.367 65.2343 136.357 65.2638Z" fill="white"/>
<path d="M136.367 86.531C138.589 86.531 140.388 84.7317 140.388 82.5096C140.388 80.2876 138.589 78.4883 136.367 78.4883C134.144 78.4883 132.345 80.2876 132.345 82.5096C132.345 84.7317 134.144 86.531 136.367 86.531Z" fill="black"/>
<path d="M143.377 94.5737C143.751 94.5737 144.055 94.2689 144.055 93.8953V93.4725C144.055 90.572 141.696 88.2222 138.805 88.2222H133.928C131.028 88.2222 128.678 90.5819 128.678 93.4725V93.8953C128.678 94.2689 128.983 94.5737 129.356 94.5737" fill="black"/>
<path d="M39.0188 85.0267L30.0323 79.2553V82.8636C20.9572 81.6838 13.9371 73.9459 13.9371 64.5464C13.9371 64.2023 13.9666 63.8778 13.9863 63.5337C13.4258 65.2936 13.1309 67.1716 13.1309 69.1085C13.1309 78.7833 20.5639 86.7178 30.0323 87.5142V90.7982L39.0188 85.0267Z" fill="#F37A20"/>
</svg>
