<svg width="160" height="120" viewBox="0 0 160 120" fill="none" xmlns="http://www.w3.org/2000/svg">
<g id="join step 1">
<g id="Group 18573">
<g id="Group">
<path id="Vector" d="M78.9084 7H48.9029C42.5952 7 37.4785 12.1167 37.4785 18.4244V83.8829C37.4785 90.1906 42.5952 95.3073 48.9029 95.3073H96.5963C102.904 95.3073 108.021 90.1906 108.021 83.8829V36.1123L78.9084 7Z" fill="white" stroke="#2E3032" stroke-width="2" stroke-linecap="round" stroke-linejoin="round"/>
<path id="Vector_2" d="M78.9084 24.6879C78.9084 30.9956 84.0252 36.1123 90.3328 36.1123H108.021L78.9084 7V24.6879Z" fill="white" stroke="#2E3032" stroke-width="2" stroke-linecap="round" stroke-linejoin="round"/>
</g>
<path id="Vector_3" d="M103.632 83.4418L94.6553 84.3791C91.4904 85.0407 88.9983 82.5486 89.6599 79.3837L90.5972 70.4074C90.8178 69.3708 91.3581 68.3784 92.1411 67.5954L121.838 37.8987C123.834 35.9027 126.855 35.6822 128.587 37.4135L136.637 45.4635C138.368 47.1948 138.147 50.2163 136.151 52.2122L106.455 81.909C105.672 82.6919 104.679 83.2433 103.643 83.4528L103.632 83.4418Z" fill="#F37A20" stroke="#2E3032" stroke-width="2" stroke-linecap="round" stroke-linejoin="round"/>
<g id="Group_2">
<path id="Vector_4" d="M27.7307 95.6159C33.3878 91.8777 28.227 88.8782 28.227 88.8782L26.4185 88.0181L23.5072 93.4656C23.1544 94.1272 22.9779 94.8661 23.011 95.6159V95.9909C24.6982 95.6821 25.9664 96.7848 27.7307 95.6159Z" fill="white" stroke="#2E3032" stroke-width="2" stroke-linecap="round" stroke-linejoin="round"/>
<g id="Vector_5">
<path d="M62.4121 90.6868C62.4121 90.6868 65.191 90.4552 67.3964 89.4958C66.9112 89.3304 66.4481 89.0878 66.0511 88.757L56.6888 80.9827C55.928 80.3541 54.9686 80.0012 53.9871 80.0012H46.9627H33.2226C31.6567 80.0012 30.2231 80.8614 29.4953 82.2398L28.5249 84.0483C31.3369 86.6397 36.8947 90.5765 44.8234 90.6868C56.6558 90.8522 62.4121 90.6868 62.4121 90.6868Z" fill="white"/>
<path d="M46.9627 80.0012H53.9871C54.9686 80.0012 55.928 80.3541 56.6888 80.9827L66.0511 88.757C66.4481 89.0878 66.9112 89.3304 67.3964 89.4958C65.191 90.4552 62.4121 90.6868 62.4121 90.6868C62.4121 90.6868 56.6558 90.8522 44.8234 90.6868C36.8947 90.5765 31.3369 86.6397 28.5249 84.0483L29.4953 82.2398C30.2231 80.8614 31.6567 80.0012 33.2226 80.0012H46.9627ZM46.9627 80.0012V90.6868" stroke="#2E3032" stroke-width="2" stroke-linecap="round" stroke-linejoin="round"/>
</g>
<g id="Vector_6">
<path d="M74.7846 90.7199C73.0754 90.1795 71.0243 89.8156 68.5431 89.7274C68.1461 89.7164 67.7602 89.6282 67.3852 89.5069C65.1797 90.4662 62.4008 90.6978 62.4008 90.6978C62.4008 90.6978 56.6446 90.8632 44.8122 90.6978C36.8945 90.5875 31.3257 86.6508 28.5137 84.0593L26.3964 88.0292L28.2049 88.8893C28.2049 88.8893 30.0355 90.1134 27.7087 93.0025C26.3854 94.6456 24.6651 95.7042 23 96.002L23.1103 101.593C23.1985 103.865 25.0621 105.662 27.3338 105.662H27.6756C27.6756 105.552 27.6536 105.441 27.6536 105.331C27.6536 101.604 30.6751 98.5934 34.3913 98.5934C38.1075 98.5934 41.129 101.615 41.129 105.331C41.129 105.441 41.118 105.552 41.107 105.662H63.2058C63.2058 105.552 63.1838 105.441 63.1838 105.331C63.1838 101.604 66.2053 98.5934 69.9215 98.5934C73.6378 98.5934 76.6593 101.615 76.6593 105.331C76.6593 105.441 76.6482 105.552 76.6372 105.662H80.8938C82.1068 105.662 83.0551 104.647 82.989 103.434C82.9008 101.747 82.4156 96.7408 80.7173 94.6125" fill="white"/>
<path d="M74.7846 90.7199C73.0754 90.1795 71.0243 89.8156 68.5431 89.7274C68.1461 89.7164 67.7602 89.6282 67.3852 89.5069C65.1797 90.4662 62.4008 90.6978 62.4008 90.6978C62.4008 90.6978 56.6446 90.8632 44.8122 90.6978C36.8945 90.5875 31.3257 86.6508 28.5137 84.0593L26.3964 88.0292L28.2049 88.8893C28.2049 88.8893 30.0355 90.1134 27.7087 93.0025C26.3854 94.6456 24.6651 95.7042 23 96.002L23.1103 101.593C23.1985 103.865 25.0621 105.662 27.3338 105.662H27.6756C27.6756 105.552 27.6536 105.441 27.6536 105.331C27.6536 101.604 30.6751 98.5934 34.3913 98.5934C38.1075 98.5934 41.129 101.615 41.129 105.331C41.129 105.441 41.118 105.552 41.107 105.662H63.2058C63.2058 105.552 63.1838 105.441 63.1838 105.331C63.1838 101.604 66.2053 98.5934 69.9215 98.5934C73.6378 98.5934 76.6593 101.615 76.6593 105.331C76.6593 105.441 76.6482 105.552 76.6372 105.662H80.8938C82.1068 105.662 83.0551 104.647 82.989 103.434C82.9008 101.747 82.4156 96.7408 80.7173 94.6125M47.7124 96.7849H53.4687" stroke="#2E3032" stroke-width="2" stroke-linecap="round" stroke-linejoin="round"/>
</g>
<path id="Vector_7" d="M77.9824 95.9577C79.1182 95.9577 80.1217 95.4174 80.7834 94.5903C79.5483 93.0355 77.6516 91.624 74.7845 90.7197C74.5308 91.216 74.3765 91.7563 74.3765 92.3518C74.3765 94.3367 75.9865 95.9577 77.9824 95.9577Z" fill="white" stroke="#2E3032" stroke-width="2" stroke-linecap="round" stroke-linejoin="round"/>
<g id="Group_3">
<path id="Vector_8" d="M69.9655 98.5713C66.2383 98.5713 63.2278 101.593 63.2278 105.309C63.2278 105.419 63.2388 105.53 63.2498 105.64C63.4263 109.213 66.3596 112.047 69.9765 112.047C73.5935 112.047 76.5268 109.202 76.7032 105.64C76.7032 105.53 76.7253 105.419 76.7253 105.309C76.7253 101.582 73.7038 98.5713 69.9876 98.5713H69.9655Z" fill="white" stroke="#2E3032" stroke-width="2" stroke-miterlimit="10"/>
<path id="Vector_9" d="M34.4243 98.5713C30.697 98.5713 27.6865 101.593 27.6865 105.309C27.6865 105.419 27.6976 105.53 27.7086 105.64C27.885 109.213 30.8183 112.047 34.4353 112.047C38.0523 112.047 40.9855 109.202 41.162 105.64C41.162 105.53 41.184 105.419 41.184 105.309C41.184 101.582 38.1625 98.5713 34.4463 98.5713H34.4243Z" fill="white" stroke="#2E3032" stroke-width="2" stroke-miterlimit="10"/>
</g>
</g>
<g id="Group_4">
<path id="Vector_10" d="M56.8205 29.1872C59.3127 29.1872 61.3307 27.1691 61.3307 24.6769C61.3307 22.1848 59.3127 20.1667 56.8205 20.1667C54.3283 20.1667 52.3103 22.1848 52.3103 24.6769C52.3103 27.1691 54.3283 29.1872 56.8205 29.1872Z" fill="black"/>
<path id="Vector_11" d="M64.683 38.1964C65.102 38.1964 65.4438 37.8546 65.4438 37.4356V36.9614C65.4438 33.7083 62.7973 31.0728 59.5552 31.0728H54.0856C50.8326 31.0728 48.197 33.7193 48.197 36.9614V37.4356C48.197 37.8546 48.5389 38.1964 48.9579 38.1964" fill="black"/>
</g>
<path id="Vector_12" d="M48.9248 55.5425H74.5194" stroke="#F37A20" stroke-width="2" stroke-linecap="round" stroke-linejoin="round"/>
<path id="Vector_13" d="M48.9248 47.7461H74.5194" stroke="#F37A20" stroke-width="2" stroke-linecap="round" stroke-linejoin="round"/>
<path id="Vector_14" d="M48.9248 63.3389H74.5194" stroke="#F37A20" stroke-width="2" stroke-linecap="round" stroke-linejoin="round"/>
<path id="Vector_15" d="M79.0295 63.3389H83.5287" stroke="#F37A20" stroke-width="2" stroke-linecap="round" stroke-linejoin="round"/>
</g>
</g>
</svg>
