<svg width="68" height="56" viewBox="0 0 68 56" fill="none" xmlns="http://www.w3.org/2000/svg">
<g id="Layer_1" clip-path="url(#clip0_707_4934)">
<g id="Group">
<path id="&#236;&#132;&#160; 384" d="M39.2671 5.99146L38.5847 2.24329" stroke="#B5B9C0" stroke-width="3" stroke-miterlimit="10" stroke-linecap="round"/>
<path id="&#237;&#140;&#168;&#236;&#138;&#164; 1227" d="M17.3575 4.92592C21.1712 1.99094 26.1999 0.691694 31.266 1.7853C34.2664 2.43025 37.0238 3.87905 39.2671 5.98214" stroke="#B5B9C0" stroke-width="3" stroke-miterlimit="10" stroke-linecap="round"/>
</g>
<g id="Group_2">
<path id="&#236;&#132;&#160; 384_2" d="M17.3575 49.0441L18.0399 52.7923" stroke="#B5B9C0" stroke-width="3" stroke-miterlimit="10" stroke-linecap="round"/>
<path id="&#237;&#140;&#168;&#236;&#138;&#164; 1227_2" d="M39.2671 50.1097C35.4535 53.0447 30.4248 54.3439 25.3586 53.2503C22.3582 52.6054 19.6008 51.1566 17.3575 49.0535" stroke="#B5B9C0" stroke-width="3" stroke-miterlimit="10" stroke-linecap="round"/>
</g>
<g id="Vector">
<path fill-rule="evenodd" clip-rule="evenodd" d="M64.4854 21.1057L49.5675 20.7131V38.4352L60.9336 37.7248" fill="white"/>
<path d="M64.4854 21.1057L49.5675 20.7131V38.4352L60.9336 37.7248" stroke="#B5B9C0" stroke-width="2" stroke-linecap="round" stroke-linejoin="round"/>
</g>
<path id="Vector_2" d="M47.4177 42.3142H7.72068C3.62666 42.3142 0.467349 38.7156 0.990785 34.6496L1.98158 26.9944C3.09388 18.4605 10.3566 12.0764 18.9652 12.0764H44.5201C47.5579 12.0764 50.1471 14.273 50.6331 17.2734L53.5307 35.1263C54.1383 38.8932 51.2313 42.3049 47.4177 42.3049V42.3142Z" fill="white" stroke="#B5B9C0" stroke-width="2" stroke-linecap="round" stroke-linejoin="round"/>
<path id="Vector_3" d="M67.0653 12.9457L59.2886 46.6326" stroke="#B5B9C0" stroke-width="2" stroke-linecap="round" stroke-linejoin="round"/>
<path id="Vector_4" d="M43.5948 37.9678H10.8706C7.84219 37.9678 5.50542 35.631 5.898 32.9858L6.77662 27.0504C7.67394 20.9748 13.5626 16.4228 20.5355 16.4228H41.2486C43.7069 16.4228 45.81 17.9931 46.2026 20.1242L48.5487 32.8456C49.0441 35.5282 46.6886 37.9585 43.5948 37.9585V37.9678Z" fill="white" stroke="#B5B9C0" stroke-width="2" stroke-linecap="round" stroke-linejoin="round"/>
<g id="Group_3">
<path id="Vector_5" d="M19.8906 35.0796H16.2639L21.0683 19.4139H24.695L19.8906 35.0796Z" fill="#B5B9C0"/>
<path id="Vector_6" d="M14.8712 35.0796H13.3196L18.124 19.4139H19.6756L14.8712 35.0796Z" fill="#B5B9C0"/>
</g>
</g>
<defs>
<clipPath id="clip0_707_4934">
<rect width="68" height="55.0356" fill="white"/>
</clipPath>
</defs>
</svg>
