<svg width="54" height="68" viewBox="0 0 54 68" fill="none" xmlns="http://www.w3.org/2000/svg">
<g id="Layer_1" clip-path="url(#clip0_707_4914)">
<path id="&#237;&#140;&#168;&#236;&#138;&#164; 1136" d="M8.10295 12.4316L3.43119 11.6838C1.96192 11.4551 0.879761 10.1881 0.879761 8.70127V6.23782C0.879761 3.28169 3.28162 0.879822 6.23776 0.879822C9.1939 0.879822 11.5958 3.28169 11.5958 6.23782V9.44031C11.5958 11.1031 10.2497 12.458 8.58684 12.4668C8.42847 12.4668 8.26131 12.458 8.10295 12.4316Z" fill="white" stroke="#B5B9C0" stroke-width="2" stroke-linecap="round" stroke-linejoin="round"/>
<path id="&#237;&#140;&#168;&#236;&#138;&#164; 1137" d="M12.3877 53.6328L9.88902 53.7296C7.94465 53.756 6.29942 52.2955 6.08827 50.3687L1.55728 16.5667C1.23175 14.5255 2.61304 12.5988 4.65419 12.2644C6.27303 12.0797 7.83028 12.9771 8.46374 14.4903L19.9892 40.339C22.2239 44.9491 20.2971 50.5007 15.6869 52.7354C14.6576 53.2369 13.5402 53.5448 12.3877 53.6328Z" fill="white" stroke="#B5B9C0" stroke-width="2" stroke-linecap="round" stroke-linejoin="round"/>
<path id="&#237;&#140;&#168;&#236;&#138;&#164; 1138" d="M46.1809 67.1202H13.6194C9.96819 67.041 7.07364 64.0145 7.16162 60.3633C7.2408 57.0641 9.73065 54.3279 13.0123 53.9408C13.0123 53.9408 24.5553 53.8528 28.0833 53.8528C31.6114 53.8528 42.5121 51.1166 42.5121 51.1166C47.4742 50.6767 51.9084 54.2135 52.5771 59.1492L52.6387 59.5715C53.1753 63.1611 50.6943 66.5132 47.1047 67.0498C46.8056 67.0938 46.4976 67.1202 46.1897 67.1202H46.1809Z" fill="white" stroke="#B5B9C0" stroke-width="2" stroke-linecap="round" stroke-linejoin="round"/>
<path id="&#237;&#140;&#168;&#236;&#138;&#164; 1139" d="M43.3127 29.8957C43.3127 31.4706 42.037 32.7551 40.4534 32.7551C38.8697 32.7551 37.594 31.4794 37.594 29.8957C37.594 28.3121 38.8697 27.0364 40.4534 27.0364C42.037 27.0364 43.3127 28.3121 43.3127 29.8957Z" fill="#B5B9C0"/>
<path id="&#237;&#140;&#168;&#236;&#138;&#164; 1140" d="M40.6733 26.746C40.6733 26.746 44.1926 17.2705 50.8175 19.1181C53.1138 19.8571 54.3807 22.3206 53.6504 24.6169C53.2193 25.963 52.1636 27.0187 50.8175 27.4498C48.1781 27.9953 45.4859 28.2769 42.7849 28.2945" fill="#B5B9C0"/>
<path id="&#237;&#140;&#168;&#236;&#138;&#164; 1141" d="M43.5415 30.3532C43.5415 30.3532 52.753 34.4707 50.5007 40.9636C49.6209 43.2159 47.0871 44.3157 44.8348 43.4359C43.5239 42.9168 42.5385 41.7995 42.1866 40.4358C41.8083 37.7612 41.6939 35.0602 41.8523 32.368" fill="#B5B9C0"/>
<path id="&#237;&#140;&#168;&#236;&#138;&#164; 1142" d="M39.987 33.0366C39.987 33.0366 35.8696 42.2481 29.3766 39.9959C27.1243 39.1161 26.0246 36.5822 26.9044 34.3299C27.4234 33.019 28.5408 32.0336 29.9045 31.6817C32.5791 31.3034 35.2889 31.1978 37.9811 31.3562" fill="#B5B9C0"/>
<path id="&#237;&#140;&#168;&#236;&#138;&#164; 1143" d="M37.2861 29.7021C37.2861 29.7021 27.7666 26.3501 29.4823 19.69C30.1773 17.3761 32.6144 16.0652 34.9282 16.7602C36.2831 17.165 37.3477 18.2031 37.8052 19.5404C38.4035 22.171 38.729 24.8544 38.7994 27.5554" fill="#B5B9C0"/>
</g>
<defs>
<clipPath id="clip0_707_4914">
<rect width="53.8528" height="68" fill="white"/>
</clipPath>
</defs>
</svg>
