<svg width="68" height="44" viewBox="0 0 68 44" fill="none" xmlns="http://www.w3.org/2000/svg">
<g clip-path="url(#clip0_707_4861)">
<path d="M6.09048 24.547C12.3308 20.422 6.63694 17.108 6.63694 17.108L4.63617 16.1561L1.42787 22.1584C1.04006 22.89 0.846148 23.7097 0.881404 24.5382L0.899032 24.9613C2.74116 24.6263 4.1514 25.8338 6.09048 24.5558V24.547Z" fill="white" stroke="#B5B9C0" stroke-width="2" stroke-linecap="round" stroke-linejoin="round"/>
<path d="M16.0327 7.31561H12.1545C10.4358 7.31561 8.84924 8.26752 8.03836 9.78353L6.97186 11.7755C10.0744 14.64 16.2089 18.9765 24.9436 19.0999C37.9971 19.285 44.3432 19.0999 44.3432 19.0999C44.3432 19.0999 47.4017 18.8443 49.8343 17.7955C49.2967 17.6104 48.7855 17.3459 48.3448 16.9758L38.0148 8.39092C37.1774 7.69461 36.1198 7.31561 35.0356 7.31561H31.4836" stroke="#B5B9C0" stroke-width="2" stroke-linecap="round" stroke-linejoin="round"/>
<path d="M57.9961 19.144C56.1099 18.5447 53.8447 18.148 51.1212 18.0423C50.6805 18.0246 50.2574 17.9365 49.8432 17.7955C47.4105 18.8532 44.352 19.0999 44.352 19.0999C44.352 19.0999 38.006 19.285 24.9524 19.0999C16.2178 18.9766 10.0832 14.6401 6.98068 11.7755L4.64497 16.1561L6.64575 17.108C6.64575 17.108 8.66416 18.4565 6.09928 21.6384C4.63616 23.4541 2.74996 24.6175 0.907837 24.9524L1.03123 31.1222C1.12819 33.6254 3.18185 35.6086 5.69384 35.6086H6.07284C6.07284 35.4852 6.05521 35.3706 6.05521 35.2472C6.05521 31.1399 9.3869 27.817 13.4854 27.817C17.5839 27.817 20.9156 31.1487 20.9156 35.2472C20.9156 35.3706 20.9068 35.4852 20.898 35.6086H45.2687C45.2687 35.4852 45.2511 35.3706 45.2511 35.2472C45.2511 31.1399 48.5828 27.817 52.6813 27.817C56.7798 27.817 60.1115 31.1487 60.1115 35.2472C60.1115 35.3706 60.1027 35.4852 60.0938 35.6086H64.7917C66.1314 35.6086 67.1803 34.4892 67.1098 33.1495C67.004 31.2897 66.4752 25.7633 64.6066 23.4188" fill="white"/>
<path d="M57.9961 19.144C56.1099 18.5447 53.8447 18.148 51.1212 18.0423C50.6805 18.0246 50.2574 17.9365 49.8432 17.7955C47.4105 18.8532 44.352 19.0999 44.352 19.0999C44.352 19.0999 38.006 19.285 24.9524 19.0999C16.2178 18.9766 10.0832 14.6401 6.98068 11.7755L4.64497 16.1561L6.64575 17.108C6.64575 17.108 8.66416 18.4565 6.09928 21.6384C4.63616 23.4541 2.74996 24.6175 0.907837 24.9524L1.03123 31.1222C1.12819 33.6254 3.18185 35.6086 5.69384 35.6086H6.07284C6.07284 35.4852 6.05521 35.3706 6.05521 35.2472C6.05521 31.1399 9.3869 27.817 13.4854 27.817C17.5839 27.817 20.9156 31.1487 20.9156 35.2472C20.9156 35.3706 20.9068 35.4852 20.898 35.6086H45.2687C45.2687 35.4852 45.2511 35.3706 45.2511 35.2472C45.2511 31.1399 48.5828 27.817 52.6813 27.817C56.7798 27.817 60.1115 31.1487 60.1115 35.2472C60.1115 35.3706 60.1027 35.4852 60.0938 35.6086H64.7917C66.1314 35.6086 67.1803 34.4892 67.1098 33.1495C67.004 31.2897 66.4752 25.7633 64.6066 23.4188M28.2048 25.8162H34.5509" stroke="#B5B9C0" stroke-width="2" stroke-linecap="round" stroke-linejoin="round"/>
<path d="M61.5217 24.9172C62.7733 24.9172 63.8839 24.3266 64.6066 23.4188C63.2405 21.7089 61.1516 20.1488 57.9961 19.144C57.7141 19.6904 57.5466 20.2898 57.5466 20.942C57.5466 23.1367 59.3271 24.9172 61.5217 24.9172Z" fill="white" stroke="#B5B9C0" stroke-width="2" stroke-linecap="round" stroke-linejoin="round"/>
<path d="M52.6901 27.8082C48.5828 27.8082 45.2599 31.1399 45.2599 35.2384C45.2599 35.3618 45.2687 35.4763 45.2775 35.5997C45.4714 39.5396 48.7062 42.6686 52.6901 42.6686C56.674 42.6686 59.9176 39.5308 60.1027 35.5997C60.1027 35.4763 60.1203 35.3618 60.1203 35.2384C60.1203 31.131 56.7886 27.8082 52.6901 27.8082Z" stroke="#B5B9C0" stroke-width="2" stroke-linecap="round" stroke-linejoin="round"/>
<path d="M13.4854 27.8082C9.37811 27.8082 6.05524 31.1399 6.05524 35.2384C6.05524 35.3618 6.06405 35.4763 6.07286 35.5997C6.26677 39.5396 9.50151 42.6686 13.4854 42.6686C17.4694 42.6686 20.7129 39.5308 20.898 35.5997C20.898 35.4763 20.9156 35.3618 20.9156 35.2384C20.9156 31.131 17.5839 27.8082 13.4854 27.8082Z" stroke="#B5B9C0" stroke-width="2" stroke-linecap="round" stroke-linejoin="round"/>
<path d="M27.3058 8.24109V18.5623" stroke="#B5B9C0" stroke-width="2" stroke-linecap="square" stroke-linejoin="round"/>
<path d="M30.3113 9.43978L18.6416 1.32208" stroke="#B5B9C0" stroke-width="3" stroke-miterlimit="10" stroke-linecap="round"/>
</g>
<defs>
<clipPath id="clip0_707_4861">
<rect width="68" height="43.5588" fill="white"/>
</clipPath>
</defs>
</svg>
