<svg width="68" height="39" viewBox="0 0 68 39" fill="none" xmlns="http://www.w3.org/2000/svg">
<g id="Layer_1" clip-path="url(#clip0_707_4898)">
<path id="Vector" d="M17.983 0.847473H50.0254V1.46612C50.0254 6.62713 45.8305 10.8221 40.6695 10.8221H27.339C22.1779 10.8221 17.983 6.62713 17.983 1.46612V0.847473Z" fill="white" stroke="#B5B9C0" stroke-width="2" stroke-linecap="round" stroke-linejoin="round"/>
<path id="Vector_2" fill-rule="evenodd" clip-rule="evenodd" d="M36.144 5.37286H31.5847C28.8813 5.37286 26.6864 7.56778 26.6864 10.2712L26.3474 14.0085H41.644L41.0339 10.2712C41.0339 7.56778 38.8389 5.37286 36.1355 5.37286H36.144Z" fill="white" stroke="#B5B9C0" stroke-width="2" stroke-linecap="round" stroke-linejoin="round"/>
<path id="Vector_3" fill-rule="evenodd" clip-rule="evenodd" d="M60.5847 37.7458H7.40673C3.77962 37.7458 0.847412 34.8051 0.847412 31.1864L1.25419 23.2627C1.25419 18.2712 5.30504 14.2203 10.2966 14.2203H57.6949C62.6864 14.2203 66.7372 18.2712 66.7372 23.2627L67.144 31.1864C67.144 34.8136 64.2033 37.7458 60.5847 37.7458Z" fill="white" stroke="#B5B9C0" stroke-width="2" stroke-linecap="round" stroke-linejoin="round"/>
<g id="Group">
<path id="Vector_4" fill-rule="evenodd" clip-rule="evenodd" d="M27.8051 26.3136H25.5255L24.8899 28.0763H27.1696L27.8051 26.3136Z" fill="#B5B9C0"/>
<path id="Vector_5" fill-rule="evenodd" clip-rule="evenodd" d="M23.2034 24.0508L20.6356 31.1356H22.8305L25.3983 24.0508H23.2034Z" fill="#B5B9C0"/>
<path id="Vector_6" fill-rule="evenodd" clip-rule="evenodd" d="M19.4746 23.8729C18.5085 23.8729 17.6695 24.2882 16.9238 25L18.6611 20.1356H16.4661L12.5339 31.1356H14.7289L15.9407 27.7458C16.8983 25.5594 17.8221 25.2966 18.2119 25.2966C18.7966 25.2966 19.4322 25.5678 18.7289 27.7288L17.4831 31.1271H19.678L20.9322 27.7034C21.9492 25.1187 20.8136 23.856 19.4831 23.856L19.4746 23.8729Z" fill="#B5B9C0"/>
<path id="Vector_7" fill-rule="evenodd" clip-rule="evenodd" d="M33.8475 23.8729C32.9153 23.8729 32.178 24.2627 31.4916 24.9238L31.8136 24.0509H29.6187L25.7543 34.5H27.9492L29.1865 31.1526C29.4153 31.1695 29.6441 31.1865 29.8983 31.1865C31.5085 31.1865 33.9492 30.4238 35.1611 27.7119C36.2966 25.178 35.178 23.8644 33.8475 23.8644V23.8729ZM32.7458 27.9746C31.5594 30.1272 30.4831 30.2034 29.5509 30.2034C29.5509 30.2034 29.7034 29.5085 30.3644 27.9407C31.356 25.5848 32.178 25.3136 32.5848 25.3136C32.9916 25.3136 34.0509 25.6102 32.7458 27.9831V27.9746Z" fill="#B5B9C0"/>
<path id="Vector_8" fill-rule="evenodd" clip-rule="evenodd" d="M53.4238 27.2289C52.7119 26.5 52.1949 26.0594 52.2288 25.695C52.2627 25.3305 52.661 24.8899 53.4661 24.8899C54.2712 24.8899 55.0678 25.2627 55.0678 25.2627L55.4577 24.2712C55.4577 24.2712 54.8051 23.7628 53.4831 23.7628C51.4407 23.7543 50.1102 24.7204 49.9407 25.9492C49.8305 26.7204 50.3136 27.195 50.8983 27.7966C51.1187 28.0255 51.3475 28.2373 51.5594 28.4746C51.9492 28.9068 52.1441 29.3475 51.7882 29.7712C51.5085 30.1017 50.9153 30.195 50.5085 30.1526C49.517 30.0594 48.9407 29.5678 48.9407 29.5678L48.1949 30.7034C48.1949 30.7034 49.0678 31.4068 50.6272 31.3644C53.0678 31.2966 54.1017 29.8899 54.1695 28.8814C54.2034 28.2628 54.0085 27.8305 53.4322 27.2373L53.4238 27.2289Z" fill="#B5B9C0"/>
<path id="Vector_9" fill-rule="evenodd" clip-rule="evenodd" d="M41.373 23.9407C39.6187 23.9576 37.0594 24.8559 35.7458 27.4152C34.4323 29.9746 35.3984 31.322 36.7289 31.322C38.0594 31.322 38.9916 30.6102 40.0848 29.2288L39.3899 31.1441H41.5848L43.9662 24.5085C43.9662 24.5085 43.0001 23.9237 41.3814 23.9491L41.373 23.9407ZM40.6018 27.1102C39.3645 29.4661 38.5086 29.7373 38.1103 29.7373C37.7119 29.7373 36.7543 29.0085 38.1696 27.0169C39.4662 25.178 40.9323 24.8475 41.6526 24.8475C41.6526 24.8475 41.4323 25.5424 40.6018 27.1102Z" fill="#B5B9C0"/>
<path id="Vector_10" fill-rule="evenodd" clip-rule="evenodd" d="M47.6356 27.2288C46.9238 26.5 46.4068 26.0594 46.4407 25.6949C46.4746 25.3305 46.8729 24.8899 47.678 24.8899C48.4831 24.8899 49.0594 25.178 49.0594 25.178L49.6695 24.2627C49.6695 24.2627 49.017 23.7543 47.7034 23.7543C45.661 23.7458 44.3305 24.7119 44.161 25.9407C44.0509 26.7119 44.5339 27.1865 45.1187 27.7882C45.339 28.017 45.5678 28.2288 45.7797 28.4661C46.1695 28.8983 46.3644 29.339 46.0085 29.7627C45.7288 30.0932 45.1356 30.1865 44.7288 30.1441C43.7373 30.0509 43.161 29.5594 43.161 29.5594L42.4153 30.6949C42.4153 30.6949 43.2797 31.3983 44.8475 31.356C47.2882 31.2882 48.3221 29.8814 48.3899 28.8729C48.4238 28.2543 48.2288 27.8221 47.6526 27.2288H47.6356Z" fill="#B5B9C0"/>
<path id="Vector_11" fill-rule="evenodd" clip-rule="evenodd" d="M36.4916 18.8729C39.2798 18.8051 42.0509 19.0932 44.8391 19.1356C47.0933 19.1695 49.356 19.1017 51.6018 18.8475C52.6357 18.7288 53.7204 18.5509 54.695 18.178C54.695 18.178 50.4916 20.4237 42.5086 20.4492C37.2713 20.4661 32.2543 20.1949 27.1357 21.7458C25.9408 22.1102 25.034 22.4661 23.5848 23.3644C23.6696 23.3051 24.3899 22.3475 25.8306 21.3814C27.8984 20 30.7035 19.3898 33.1357 19.1102C34.2459 18.9831 35.3645 18.9068 36.4916 18.8814V18.8729Z" fill="#B5B9C0"/>
<path id="Vector_12" fill-rule="evenodd" clip-rule="evenodd" d="M23.678 23.4831C23.678 23.4831 26.8644 21.2712 33.8136 20.8051C36.6949 20.661 36.7288 20.661 39.7204 20.6949C39.678 20.6949 49.1271 21.1271 54.4746 18.5C54.2119 18.6271 53.9661 18.7966 53.7119 18.9322C53.0678 19.2797 52.4068 19.5847 51.7373 19.8644C50.4831 20.3814 49.1949 20.7881 47.8814 21.0932C45.8983 21.5593 43.8983 21.7966 41.9237 21.9322C39.3898 22.1102 36.8983 22.1102 34.4576 22.1102C31.7627 22.1102 29.0932 22.2373 26.3898 22.7881C25.9322 22.8814 25.4746 22.9576 25.017 23.0763C24.6187 23.178 24.0593 23.2712 23.678 23.4831Z" fill="#B5B9C0"/>
</g>
</g>
<defs>
<clipPath id="clip0_707_4898">
<rect width="68" height="38.5932" fill="white"/>
</clipPath>
</defs>
</svg>
