<svg width="68" height="54" viewBox="0 0 68 54" fill="none" xmlns="http://www.w3.org/2000/svg">
<g id="Layer_1" clip-path="url(#clip0_707_4874)">
<g id="&#234;&#183;&#184;&#235;&#163;&#185; 1067">
<g id="&#234;&#183;&#184;&#235;&#163;&#185; 1045">
<path id="&#236;&#130;&#172;&#234;&#176;&#129;&#237;&#152;&#149; 769" d="M61.2388 0.901489H6.76123C3.52498 0.901489 0.901489 3.52498 0.901489 6.76123V38.3678C0.901489 41.604 3.52498 44.2275 6.76123 44.2275H61.2388C64.475 44.2275 67.0985 41.604 67.0985 38.3678V6.76123C67.0985 3.52498 64.475 0.901489 61.2388 0.901489Z" fill="white" stroke="#B5B9C0" stroke-width="2" stroke-linecap="round" stroke-linejoin="round"/>
<path id="&#236;&#130;&#172;&#234;&#176;&#129;&#237;&#152;&#149; 770" d="M59.4268 4.85004H8.57325C6.60661 4.85004 5.01233 6.44431 5.01233 8.41095V36.727C5.01233 38.6936 6.60661 40.2879 8.57325 40.2879H59.4268C61.3934 40.2879 62.9877 38.6936 62.9877 36.727V8.41095C62.9877 6.44431 61.3934 4.85004 59.4268 4.85004Z" stroke="#B5B9C0" stroke-width="2" stroke-linecap="round" stroke-linejoin="round"/>
<g id="&#237;&#140;&#168;&#236;&#138;&#164; 1201">
<path id="Vector" d="M33.3283 51.3583C32.7694 50.7183 19.6075 35.6272 19.6075 28.3521C19.9681 20.6082 26.2786 14.5862 33.9774 14.5862C34.2028 14.5862 34.4282 14.5862 34.6626 14.6043C41.8385 14.9378 47.563 20.4009 48.3112 27.4596H48.3743L48.3924 28.3611C48.3924 35.6362 35.2485 50.7273 34.6896 51.3674L34.0135 52.1427L33.3374 51.3674L33.3283 51.3583Z" fill="#B5B9C0"/>
<path id="Vector_2" d="M33.9774 15.4787C34.1938 15.4787 34.4011 15.4787 34.6175 15.4968C41.5771 15.8213 47.1483 21.3926 47.4729 28.3521H47.4909C47.4909 35.3748 34.0045 50.7634 34.0045 50.7634C34.0045 50.7634 20.5091 35.3658 20.5091 28.3521C20.8426 21.1221 26.8195 15.4877 33.9774 15.4877M33.9774 13.6848C25.7918 13.6848 19.0847 20.0944 18.7061 28.271V28.3161V28.3611C18.7061 35.8436 31.2279 50.3397 32.6522 51.9624L34.0045 53.5129L35.3567 51.9624C36.7811 50.3307 49.2849 35.8436 49.2849 28.3611V26.5581H49.0956C47.9687 19.4543 42.0549 14.0454 34.6986 13.7028C34.4552 13.6938 34.2118 13.6848 33.9774 13.6848Z" fill="white"/>
</g>
<path id="&#237;&#140;&#168;&#236;&#138;&#164; 1202" d="M33.9955 23.0874C30.8673 23.2677 28.4783 25.9541 28.6676 29.0913C28.8569 32.2285 31.5344 34.6085 34.6716 34.4192C37.6736 34.2389 40.0085 31.7598 40.0085 28.7488C39.9093 25.5304 37.2228 22.9972 33.9955 23.0874Z" fill="white"/>
</g>
</g>
</g>
<defs>
<clipPath id="clip0_707_4874">
<rect width="68" height="53.4949" fill="white"/>
</clipPath>
</defs>
</svg>
