<svg width="48" height="68" viewBox="0 0 48 68" fill="none" xmlns="http://www.w3.org/2000/svg">
<g id="Layer_1" clip-path="url(#clip0_707_4850)">
<path id="Vector" d="M35.4169 48.299L12.7472 48.1101C6.63002 48.0471 4.40804 42.7665 4.93879 36.6313L6.48609 18.6845C7.02584 12.4413 12.2525 7.67352 18.4776 7.73649L30.6491 7.86243C36.8742 7.9254 41.9929 12.8102 42.3797 19.0623L43.5042 37.0361C43.891 43.1803 41.5431 48.353 35.4259 48.29L35.4169 48.299Z" fill="white" stroke="#2E3033" stroke-width="2" stroke-linecap="round" stroke-linejoin="round"/>
<path id="Vector_2" d="M29.8215 43.0904H18.6755C14.7983 43.0904 11.7397 39.6 12.0276 35.4978L12.8732 23.5063C13.17 19.3412 16.4446 16.1117 20.3938 16.1117H28.1122C32.0614 16.1117 35.3359 19.3322 35.6328 23.5063L36.4784 35.4978C36.7663 39.591 33.7077 43.0904 29.8305 43.0904H29.8215Z" fill="#F47A20"/>
<g id="Vector_3">
<path d="M44.4038 52.5001L46.104 55.9995C47.4804 61.0462 45.4923 67.1364 42.4697 67.1094L4.81283 66.6866C1.86218 66.6506 2.80142e-05 60.7853 1.34042 55.7836L3.03165 52.5001" fill="white"/>
<path d="M44.4038 52.5001L46.104 55.9995C47.4804 61.0462 45.4923 67.1364 42.4697 67.1094L4.81283 66.6866C1.86218 66.6506 2.79897e-05 60.7853 1.34042 55.7836L3.03165 52.5001" stroke="#2E3033" stroke-width="2" stroke-linecap="round" stroke-linejoin="round"/>
</g>
<path id="Vector_4" d="M31.0988 11.3618L17.8388 11.2179C16.4085 11.1999 15.302 9.83253 15.4369 8.25824L15.5809 6.56701C15.8597 3.33749 18.3246 0.872608 21.2483 0.908592L27.8873 0.980559C30.7839 1.01654 33.1858 3.48142 33.4287 6.69296L33.5547 8.42916C33.6716 10.0214 32.5291 11.3798 31.0898 11.3618H31.0988Z" fill="white" stroke="#2E3033" stroke-width="2" stroke-linecap="round" stroke-linejoin="round"/>
<path id="Vector_5" d="M41.1022 57.9516L6.38705 57.5648C3.67029 57.5378 1.91609 54.6681 3.13953 52.2392L3.69728 51.1327C4.63285 49.2705 6.54898 48.1011 8.62703 48.1191L39.0152 48.4609C41.0213 48.4789 42.8474 49.6034 43.774 51.3756L44.3947 52.563C45.6901 55.0279 43.882 57.9876 41.0932 57.9516H41.1022Z" fill="white" stroke="#2E3033" stroke-width="2" stroke-linecap="round" stroke-linejoin="round"/>
<g id="Group">
<g id="Vector_6">
<path d="M16.8043 48.3709C16.8043 48.3709 11.1009 56.3503 11.7576 57.5378L16.8043 48.3709Z" fill="white"/>
<path d="M16.8043 48.3709C16.8043 48.3709 11.1009 56.3503 11.7576 57.5378" stroke="#2E3033" stroke-width="2" stroke-linecap="round" stroke-linejoin="round"/>
</g>
<g id="Vector_7">
<path d="M30.8918 48.5329C30.8918 48.5329 36.4153 56.6382 35.7316 57.8076L30.8918 48.5329Z" fill="white"/>
<path d="M30.8918 48.5329C30.8918 48.5329 36.4153 56.6382 35.7316 57.8076" stroke="#2E3033" stroke-width="2" stroke-linecap="round" stroke-linejoin="round"/>
</g>
</g>
</g>
<defs>
<clipPath id="clip0_707_4850">
<rect width="47.4534" height="68" fill="white"/>
</clipPath>
</defs>
</svg>
