<svg width="68" height="63" viewBox="0 0 68 63" fill="none" xmlns="http://www.w3.org/2000/svg">
<g id="Layer_1" clip-path="url(#clip0_707_4829)">
<g id="&#234;&#183;&#184;&#235;&#163;&#185; 1064">
<g id="&#234;&#183;&#184;&#235;&#163;&#185; 1038">
<path id="&#237;&#140;&#168;&#236;&#138;&#164; 1195" d="M48.2423 24.0498V20.1553C48.2423 17.5658 46.1422 15.4657 43.5527 15.4657C43.5527 15.4657 43.5527 15.4657 43.5425 15.4657H24.4474C21.8579 15.4657 19.7578 17.5556 19.7476 20.1451C19.7476 20.1451 19.7476 20.1451 19.7476 20.1553V24.0498H5.71938C3.12988 24.0498 1.02973 26.1397 1.01953 28.7292C1.01953 28.7292 1.01953 28.7292 1.01953 28.7394V57.1016C1.01953 59.6912 3.11968 61.7913 5.70919 61.7913C5.70919 61.7913 5.70919 61.7913 5.71938 61.7913H62.2909C64.8804 61.7913 66.9806 59.7013 66.9907 57.1118C66.9907 57.1118 66.9907 57.1118 66.9907 57.1016V28.7394C66.9907 26.1499 64.8906 24.0498 62.3011 24.0498C62.3011 24.0498 62.3011 24.0498 62.2909 24.0498H48.2525H48.2423Z" fill="white" stroke="#2E3033" stroke-width="2" stroke-linecap="round" stroke-linejoin="round"/>
<path id="&#237;&#140;&#168;&#236;&#138;&#164; 1196" d="M48.2219 1.0195H19.7883V6.16793C19.7883 9.16523 22.2147 11.5916 25.212 11.5916H42.7982C45.7955 11.5916 48.2219 9.16523 48.2219 6.16793V1.0195Z" fill="white" stroke="#2E3033" stroke-width="2" stroke-linecap="round" stroke-linejoin="round"/>
<path id="&#237;&#140;&#168;&#236;&#138;&#164; 1197" d="M46.9782 42.2783C46.9782 49.4453 41.1671 55.2564 34.0001 55.2564C26.8331 55.2564 21.022 49.4453 21.022 42.2783C21.022 35.1113 26.8331 29.3002 34.0001 29.3002C41.1671 29.3002 46.9782 35.1113 46.9782 42.2783Z" fill="#F47A20"/>
<path id="&#237;&#131;&#128;&#236;&#155;&#144; 97" d="M34.0001 48.2729C37.2432 48.2729 39.8723 45.6438 39.8723 42.4006C39.8723 39.1575 37.2432 36.5284 34.0001 36.5284C30.7569 36.5284 28.1278 39.1575 28.1278 42.4006C28.1278 45.6438 30.7569 48.2729 34.0001 48.2729Z" fill="white"/>
</g>
</g>
</g>
<defs>
<clipPath id="clip0_707_4829">
<rect width="68" height="62.8108" fill="white"/>
</clipPath>
</defs>
</svg>
