<svg width="68" height="63" viewBox="0 0 68 63" fill="none" xmlns="http://www.w3.org/2000/svg">
<g id="Layer_1" clip-path="url(#clip0_707_4925)">
<g id="&#234;&#183;&#184;&#235;&#163;&#185; 1064">
<g id="&#234;&#183;&#184;&#235;&#163;&#185; 1038">
<path id="&#237;&#140;&#168;&#236;&#138;&#164; 1195" d="M48.2423 24.0497V20.1553C48.2423 17.5658 46.1422 15.4656 43.5527 15.4656C43.5527 15.4656 43.5527 15.4656 43.5425 15.4656H24.4474C21.8579 15.4656 19.7578 17.5556 19.7476 20.1451C19.7476 20.1451 19.7476 20.1451 19.7476 20.1553V24.0497H5.71938C3.12988 24.0497 1.02973 26.1397 1.01953 28.7292C1.01953 28.7292 1.01953 28.7292 1.01953 28.7394V57.1016C1.01953 59.6911 3.11968 61.7913 5.70919 61.7913C5.70919 61.7913 5.70919 61.7913 5.71938 61.7913H62.2909C64.8804 61.7913 66.9806 59.7013 66.9907 57.1118C66.9907 57.1118 66.9907 57.1118 66.9907 57.1016V28.7394C66.9907 26.1499 64.8906 24.0497 62.3011 24.0497C62.3011 24.0497 62.3011 24.0497 62.2909 24.0497H48.2525H48.2423Z" fill="white" stroke="#B5B9C0" stroke-width="2" stroke-linecap="round" stroke-linejoin="round"/>
<path id="&#237;&#140;&#168;&#236;&#138;&#164; 1196" d="M48.2219 1.01947H19.7883V6.1679C19.7883 9.1652 22.2147 11.5916 25.212 11.5916H42.7982C45.7955 11.5916 48.2219 9.1652 48.2219 6.1679V1.01947Z" fill="white" stroke="#B5B9C0" stroke-width="2" stroke-linecap="round" stroke-linejoin="round"/>
<path id="&#237;&#140;&#168;&#236;&#138;&#164; 1197" d="M46.9782 42.2782C46.9782 49.4452 41.1671 55.2563 34.0001 55.2563C26.8331 55.2563 21.022 49.4452 21.022 42.2782C21.022 35.1112 26.8331 29.3001 34.0001 29.3001C41.1671 29.3001 46.9782 35.1112 46.9782 42.2782Z" fill="#B5B9C0"/>
<path id="&#237;&#131;&#128;&#236;&#155;&#144; 97" d="M34.0001 48.2728C37.2432 48.2728 39.8723 45.6437 39.8723 42.4006C39.8723 39.1574 37.2432 36.5283 34.0001 36.5283C30.7569 36.5283 28.1278 39.1574 28.1278 42.4006C28.1278 45.6437 30.7569 48.2728 34.0001 48.2728Z" fill="white"/>
</g>
</g>
</g>
<defs>
<clipPath id="clip0_707_4925">
<rect width="68" height="62.8108" fill="white"/>
</clipPath>
</defs>
</svg>
