<svg width="46" height="68" viewBox="0 0 46 68" fill="none" xmlns="http://www.w3.org/2000/svg">
<g id="Layer_1" clip-path="url(#clip0_707_4718)">
<g id="Vector">
<path d="M9.74682 53.0823L7.27075 61.8142C6.79828 63.5203 5.03966 64.5353 3.32479 64.0978C1.49617 63.6253 0.44625 61.7005 1.04996 59.9069L9.34435 35.3124" fill="white"/>
<path d="M9.74682 53.0824L7.27075 61.8142C6.79828 63.5203 5.03966 64.5353 3.32479 64.0978C1.49617 63.6253 0.44625 61.7005 1.04996 59.9069L9.34435 35.3124" stroke="#2E3033" stroke-width="2" stroke-linecap="round" stroke-linejoin="round"/>
</g>
<g id="Group">
<path id="Vector_2" d="M36.1085 16.1251H18.0936C13.3533 16.1251 9.5105 19.9679 9.5105 24.7082V58.5419C9.5105 63.2823 13.3533 67.1251 18.0936 67.1251H36.1085C40.8489 67.1251 44.6917 63.2823 44.6917 58.5419V24.7082C44.6917 19.9679 40.8489 16.1251 36.1085 16.1251Z" fill="white" stroke="#2E3033" stroke-width="2" stroke-linecap="round" stroke-linejoin="round"/>
<path id="Vector_3" d="M19.476 27.8492C21.2832 27.8492 22.7483 26.3842 22.7483 24.5769C22.7483 22.7697 21.2832 21.3047 19.476 21.3047C17.6688 21.3047 16.2037 22.7697 16.2037 24.5769C16.2037 26.3842 17.6688 27.8492 19.476 27.8492Z" fill="white" stroke="#2E3033" stroke-width="2" stroke-linecap="round" stroke-linejoin="round"/>
<path id="Vector_4" d="M38.4358 39.0659C38.4358 36.7385 36.546 34.8399 34.2099 34.8399H19.9834C17.6561 34.8399 15.7662 36.7298 15.7662 39.0659V46.7128H38.4358V39.0659Z" fill="#F47A20"/>
<path id="Vector_5" d="M15.775 57.7808C15.775 60.1081 17.6649 61.9979 19.9922 61.9979H34.2187C36.546 61.9979 38.4446 60.1081 38.4446 57.7808V48.9964H15.775V57.7808Z" fill="#F47A20"/>
</g>
<g id="Group_2">
<path id="&#237;&#140;&#168;&#236;&#138;&#164; 1124" d="M37.6397 5.20587C31.8652 -0.568705 22.5121 -0.568705 16.7375 5.20587C16.685 5.25837 16.6238 5.31961 16.5713 5.37211" stroke="#2E3033" stroke-width="2" stroke-linecap="round" stroke-linejoin="round"/>
<path id="&#237;&#140;&#168;&#236;&#138;&#164; 1126" d="M33.4488 8.26813C29.9928 4.81213 24.3932 4.80339 20.9284 8.26813C20.8759 8.32063 20.8147 8.38187 20.7622 8.44312" stroke="#2E3033" stroke-width="2" stroke-linecap="round" stroke-linejoin="round"/>
<path id="&#237;&#140;&#168;&#236;&#138;&#164; 1127" d="M23.8333 11.5492C25.3819 10.0793 28.1379 9.88678 29.9841 11.1204C30.124 11.2167 30.2553 11.3129 30.3778 11.4179" stroke="#2E3033" stroke-width="2" stroke-linecap="round" stroke-linejoin="round"/>
</g>
</g>
<defs>
<clipPath id="clip0_707_4718">
<rect width="45.5667" height="68" fill="white"/>
</clipPath>
</defs>
</svg>
