<svg width="452" height="51" viewBox="0 0 452 51" fill="none" xmlns="http://www.w3.org/2000/svg">
<path opacity="0.6" d="M47.76 54.14C46.26 54.86 44.7 55.58 43.08 56.3C41.52 56.96 39.84 57.56 38.04 58.1C36.24 58.58 34.26 58.97 32.1 59.27C30 59.57 27.69 59.72 25.17 59.72C17.13 59.72 10.92 57.92 6.54 54.32C2.22 50.72 0.0600002 44.72 0.0600002 36.32C0.0600002 31.46 0.81 26.9 2.31 22.64C3.81 18.32 6.03 14.57 8.97 11.39C11.91 8.15 15.54 5.6 19.86 3.74C24.18 1.88 29.13 0.949996 34.71 0.949996C37.35 0.949996 39.75 1.13 41.91 1.48999C44.13 1.85 46.11 2.33 47.85 2.93C49.65 3.47 51.24 4.07 52.62 4.73C54.06 5.39 55.35 6.02 56.49 6.62L53.25 23.36H37.05C37.11 22.76 37.17 21.98 37.23 21.02C37.35 20.06 37.44 19.1 37.5 18.14C37.56 17.12 37.62 16.13 37.68 15.17C37.74 14.21 37.77 13.4 37.77 12.74C37.77 12.26 37.74 11.72 37.68 11.12C37.62 10.46 37.47 9.83 37.23 9.23C36.99 8.63 36.6 8.15 36.06 7.79C35.58 7.37 34.92 7.16 34.08 7.16C32.52 7.16 31.08 7.82 29.76 9.14C28.5 10.4 27.36 12.11 26.34 14.27C25.32 16.37 24.42 18.77 23.64 21.47C22.86 24.17 22.2 26.93 21.66 29.75C21.18 32.51 20.79 35.24 20.49 37.94C20.25 40.64 20.13 43.01 20.13 45.05C20.13 45.65 20.16 46.4 20.22 47.3C20.28 48.2 20.46 49.07 20.76 49.91C21.06 50.75 21.51 51.47 22.11 52.07C22.77 52.67 23.64 52.97 24.72 52.97C26.58 52.97 28.38 51.83 30.12 49.55C31.86 47.21 33.39 43.07 34.71 37.13H51.36L47.76 54.14ZM58.9605 23.63C62.0205 22.13 65.1405 21.05 68.3205 20.39C71.5605 19.67 75.1605 19.31 79.1205 19.31C82.9605 19.31 86.1405 19.61 88.6605 20.21C91.1805 20.81 93.1905 21.68 94.6905 22.82C96.1905 23.96 97.2405 25.31 97.8405 26.87C98.4405 28.43 98.7405 30.2 98.7405 32.18C98.7405 33.32 98.6505 34.55 98.4705 35.87C98.3505 37.19 98.2005 38.3 98.0205 39.2L93.7905 59H79.3005L77.6805 53.24H77.1405C75.2205 55.34 72.9705 56.96 70.3905 58.1C67.8705 59.18 65.3505 59.72 62.8305 59.72C61.3905 59.72 59.9805 59.51 58.6005 59.09C57.2205 58.67 55.9905 58.04 54.9105 57.2C53.8305 56.3 52.9605 55.19 52.3005 53.87C51.6405 52.49 51.3105 50.84 51.3105 48.92C51.3105 45.8 52.1505 43.34 53.8305 41.54C55.5705 39.68 57.8205 38.3 60.5805 37.4C63.4005 36.44 66.5505 35.84 70.0305 35.6C73.5705 35.36 77.1105 35.24 80.6505 35.24C80.7705 34.64 80.9205 33.8 81.1005 32.72C81.2805 31.58 81.3705 30.59 81.3705 29.75C81.3705 28.67 81.0705 27.68 80.4705 26.78C79.9305 25.82 78.7605 25.34 76.9605 25.34C74.8605 25.34 73.3005 25.97 72.2805 27.23C71.3205 28.43 70.6905 29.9 70.3905 31.64H57.2505L58.9605 23.63ZM79.6605 39.47H78.0405C76.3005 39.47 74.8005 39.71 73.5405 40.19C72.3405 40.61 71.3505 41.18 70.5705 41.9C69.8505 42.62 69.3105 43.43 68.9505 44.33C68.5905 45.23 68.4105 46.13 68.4105 47.03C68.4105 48.47 68.7705 49.55 69.4905 50.27C70.2705 50.99 71.1705 51.35 72.1905 51.35C73.4505 51.35 74.6805 50.9 75.8805 50C77.1405 49.1 77.9205 47.9 78.2205 46.4L79.6605 39.47ZM107.429 20.3H122.099L123.449 27.05H124.079C125.459 24.89 127.229 23.06 129.389 21.56C131.549 20.06 134.399 19.31 137.939 19.31C138.179 19.31 138.539 19.34 139.019 19.4C139.559 19.4 140.129 19.49 140.729 19.67C141.389 19.79 142.049 20 142.709 20.3C143.429 20.54 144.119 20.9 144.779 21.38L140.819 39.92H131.009C130.889 36.2 130.559 33.62 130.019 32.18C129.479 30.68 128.609 29.93 127.409 29.93C126.809 29.93 126.149 30.08 125.429 30.38C124.769 30.62 124.079 31.19 123.359 32.09L117.599 59H99.2387L107.429 20.3ZM205.679 59H186.239L191.639 33.53H180.569L175.169 59H155.729L167.879 1.85H187.409L182.099 26.69H193.079L198.389 1.85H218.009L205.679 59ZM231.04 59H212.77L220.96 20.3H239.41L231.04 59ZM241.75 8.51C241.75 9.89 241.45 11.09 240.85 12.11C240.31 13.13 239.56 14 238.6 14.72C237.7 15.44 236.65 15.98 235.45 16.34C234.25 16.7 233.02 16.88 231.76 16.88C229.36 16.88 227.35 16.31 225.73 15.17C224.11 14.03 223.3 12.23 223.3 9.77C223.3 8.45 223.57 7.28 224.11 6.26C224.65 5.18 225.37 4.31 226.27 3.65C227.23 2.93 228.31 2.39 229.51 2.03C230.77 1.67 232.06 1.48999 233.38 1.48999C235.72 1.48999 237.7 2.06 239.32 3.2C240.94 4.34 241.75 6.11 241.75 8.51ZM265.667 31.64C265.727 31.34 265.787 31.04 265.847 30.74C265.907 30.44 265.937 30.11 265.937 29.75C265.937 28.67 265.727 27.68 265.307 26.78C264.947 25.82 264.197 25.34 263.057 25.34C262.037 25.34 261.017 25.79 259.997 26.69C258.977 27.53 258.467 28.67 258.467 30.11C258.467 31.07 258.707 31.85 259.187 32.45C259.727 32.99 260.417 33.44 261.257 33.8C262.097 34.16 263.027 34.46 264.047 34.7C265.127 34.94 266.177 35.18 267.197 35.42C268.637 35.78 269.987 36.23 271.247 36.77C272.567 37.25 273.737 37.91 274.757 38.75C275.777 39.59 276.587 40.64 277.187 41.9C277.787 43.1 278.087 44.6 278.087 46.4C278.087 48.92 277.487 51.05 276.287 52.79C275.147 54.47 273.527 55.85 271.427 56.93C269.387 57.95 266.957 58.67 264.137 59.09C261.377 59.51 258.407 59.72 255.227 59.72C250.367 59.72 246.347 59.36 243.167 58.64C239.987 57.92 237.767 57.23 236.507 56.57L238.397 47.57H250.547C250.487 47.87 250.457 48.17 250.457 48.47C250.457 48.71 250.457 48.98 250.457 49.28C250.457 50.66 250.757 51.77 251.357 52.61C252.017 53.39 253.127 53.78 254.687 53.78C256.427 53.78 257.657 53.3 258.377 52.34C259.157 51.32 259.547 50.39 259.547 49.55C259.547 48.71 259.217 47.99 258.557 47.39C257.957 46.73 257.177 46.19 256.217 45.77C255.257 45.29 254.177 44.9 252.977 44.6C251.837 44.24 250.727 43.91 249.647 43.61C248.867 43.43 247.967 43.13 246.947 42.71C245.987 42.29 245.057 41.69 244.157 40.91C243.257 40.13 242.507 39.14 241.907 37.94C241.307 36.68 241.007 35.12 241.007 33.26C241.007 30.62 241.637 28.43 242.897 26.69C244.217 24.89 245.897 23.45 247.937 22.37C250.037 21.29 252.377 20.51 254.957 20.03C257.597 19.55 260.237 19.31 262.877 19.31C266.177 19.31 269.297 19.61 272.237 20.21C275.177 20.81 277.577 21.59 279.437 22.55L277.367 31.64H265.667ZM283.331 20.3C285.551 19.82 287.501 19.28 289.181 18.68C290.861 18.08 292.391 17.33 293.771 16.43C295.211 15.53 296.561 14.42 297.821 13.1C299.141 11.78 300.551 10.16 302.051 8.24H311.321L308.711 20.3H315.731L314.561 26.33H307.451L303.761 43.88C303.461 45.26 303.221 46.49 303.041 47.57C302.861 48.65 302.771 49.49 302.771 50.09C302.771 51.29 303.191 52.04 304.031 52.34C304.931 52.64 306.581 52.79 308.981 52.79L307.631 59C307.211 59.12 306.551 59.21 305.651 59.27C304.811 59.33 303.851 59.39 302.771 59.45C301.751 59.57 300.671 59.63 299.531 59.63C298.451 59.69 297.491 59.72 296.651 59.72C295.151 59.72 293.681 59.6 292.241 59.36C290.801 59.18 289.511 58.79 288.371 58.19C287.231 57.53 286.301 56.6 285.581 55.4C284.921 54.2 284.591 52.58 284.591 50.54C284.591 49.82 284.621 48.92 284.681 47.84C284.801 46.76 285.011 45.56 285.311 44.24L289.091 26.33H282.071L283.331 20.3ZM339.995 19.31C347.135 19.31 352.325 20.57 355.565 23.09C358.985 25.73 360.695 30.11 360.695 36.23C360.695 40.01 360.065 43.43 358.805 46.49C357.545 49.49 355.775 51.98 353.495 53.96C348.935 57.8 342.335 59.72 333.695 59.72C326.315 59.72 321.035 58.31 317.855 55.49C314.435 52.55 312.725 48.14 312.725 42.26C312.725 38.36 313.505 34.82 315.065 31.64C316.685 28.46 318.995 25.82 321.995 23.72C326.375 20.78 332.375 19.31 339.995 19.31ZM333.875 53.6C335.375 53.6 336.665 52.76 337.745 51.08C338.885 49.4 339.785 47.36 340.445 44.96C341.105 42.5 341.585 39.98 341.885 37.4C342.245 34.76 342.425 32.48 342.425 30.56C342.425 28.88 342.245 27.62 341.885 26.78C341.585 25.88 340.895 25.43 339.815 25.43C338.195 25.43 336.785 26.3 335.585 28.04C334.445 29.78 333.515 31.85 332.795 34.25C332.075 36.65 331.535 39.11 331.175 41.63C330.875 44.15 330.725 46.19 330.725 47.75C330.725 51.65 331.775 53.6 333.875 53.6ZM368.702 20.3H383.372L384.722 27.05H385.352C386.732 24.89 388.502 23.06 390.662 21.56C392.822 20.06 395.672 19.31 399.212 19.31C399.452 19.31 399.812 19.34 400.292 19.4C400.832 19.4 401.402 19.49 402.002 19.67C402.662 19.79 403.322 20 403.982 20.3C404.702 20.54 405.392 20.9 406.052 21.38L402.092 39.92H392.282C392.162 36.2 391.832 33.62 391.292 32.18C390.752 30.68 389.882 29.93 388.682 29.93C388.082 29.93 387.422 30.08 386.702 30.38C386.042 30.62 385.352 31.19 384.632 32.09L378.872 59H360.512L368.702 20.3ZM425.508 20.3L428.208 46.76L442.428 20.3H451.968L430.278 59C428.118 62.78 425.928 65.69 423.708 67.73C421.488 69.77 419.058 71.27 416.418 72.23C413.838 73.19 410.958 73.73 407.778 73.85C404.658 74.03 401.088 74.12 397.068 74.12L398.418 67.91C400.398 67.91 402.228 67.88 403.908 67.82C405.648 67.76 407.028 67.58 408.048 67.28C409.428 66.92 410.418 66.26 411.018 65.3C411.618 64.4 411.918 63.05 411.918 61.25C411.918 60.05 411.798 58.67 411.558 57.11C411.378 55.55 411.168 53.9 410.928 52.16L406.518 20.3H425.508Z" fill="white"/>
</svg>
